<?xml version="1.0" encoding="utf-8"?>
<!-- Generator: Adobe Illustrator 24.3.0, SVG Export Plug-In . SVG Version: 6.00 Build 0)  -->
<svg version="1.1" id="Layer_1" xmlns="http://www.w3.org/2000/svg" xmlns:xlink="http://www.w3.org/1999/xlink" x="0px" y="0px"
	 width="266.9px" height="256px" viewBox="0 0 266.9 256" style="enable-background:new 0 0 266.9 256;" xml:space="preserve">
<style type="text/css">
	.st0{fill:#FDF1EE;}
	.st1{fill:#52999D;}
	.st2{fill:#E17863;}
</style>
<g>
	<path class="st0" d="M123.5,61.8c0,34.1-27.7,61.8-61.8,61.8C27.7,123.5,0,95.9,0,61.8C0,27.7,27.7,0,61.8,0
		C95.9,0,123.5,27.7,123.5,61.8"/>
	<path class="st0" d="M126,181c0,17.4-14.1,31.5-31.5,31.5c-17.4,0-31.5-14.1-31.5-31.5c0-17.4,14.1-31.5,31.5-31.5
		C111.9,149.6,126,163.7,126,181"/>
	<path class="st0" d="M266.9,91.7c0,28.2-22.9,51.1-51.1,51.1s-51.1-22.9-51.1-51.1c0-28.2,22.9-51.1,51.1-51.1
		S266.9,63.5,266.9,91.7"/>
	<path class="st0" d="M242.5,182.5c0,14.1-11.4,25.5-25.5,25.5c-14.1,0-25.5-11.4-25.5-25.5c0-14.1,11.4-25.5,25.5-25.5
		C231.1,157,242.5,168.4,242.5,182.5"/>
	<path class="st1" d="M202.3,130.9l-77.6-39.8c-0.5-0.2-1-0.2-1.5,0l-17.9,10.5c-0.1,0.1-0.3,0.2-0.4,0.3c0,0,0,0.1-0.1,0.1
		c-0.1,0.1-0.2,0.2-0.2,0.3l-0.1,0.1l-17,55.3c-0.1,0.4-0.1,0.8,0.1,1.1c0.2,0.4,0.5,0.6,0.9,0.7l63.7,19.6c0.7,0.2,1.4-0.1,1.8-0.7
		c1.5-2.7,4.4-4.4,7.5-4.4c0.9,0,1.7,0.1,2.5,0.4c3.9,1.2,6.4,5,6,9c-0.1,0.7,0.4,1.4,1.1,1.6l13,4c0.1,0,0.3,0.1,0.4,0.1
		c0.2,0,0.5-0.1,0.7-0.2c0.4-0.2,0.6-0.5,0.7-0.9l5.4-17.6c0.2-0.7-0.1-1.5-0.8-1.8c-2.4-1.2-3.6-4-2.8-6.6c0.7-2.4,2.9-3.9,5.3-3.9
		c0.2,0,0.5,0,0.7,0c0.7,0.1,1.4-0.3,1.6-1.1l7.4-24c0.1-0.2,0.2-0.4,0.2-0.6C203.3,131.7,202.9,131.2,202.3,130.9 M109.9,102.5
		l14.2-8.3l61.6,31.6l-36.5-11.2L109.9,102.5z M185.1,161.1c-1.1,3.5,0.2,7.4,3.2,9.5l-4.6,15.1l-10.4-3.2c-0.1-5-3.4-9.5-8.2-10.9
		c-1.1-0.3-2.3-0.5-3.4-0.5c-3.8,0-7.4,1.8-9.5,4.9L91,157.2l16.1-52.3l6.3,1.9c-0.4,3.8,2,7.5,5.7,8.6c0.8,0.2,1.6,0.4,2.4,0.4
		c3,0,5.8-1.7,7.2-4.3l71.3,21.9l-6.7,21.6C189.5,155.1,186.2,157.6,185.1,161.1 M119.9,112.5c-2.1-0.7-3.6-2.6-3.6-4.8l9.2,2.8
		C124.3,112.4,122.1,113.2,119.9,112.5"/>
	<path class="st1" d="M106.2,199c0.1-0.4,0-0.8-0.2-1.1l-27-45.4v-0.1l-0.1-0.1l-14.3-24c-0.2-0.3-0.4-0.5-0.7-0.6l-14.5-5.2
		l-4.5-7.5c-0.7-1.2-2.1-2-3.5-2c-0.7,0-1.5,0.2-2.1,0.6l-20.5,12.2c-1.9,1.1-2.6,3.7-1.4,5.6l4.5,7.5L19,154.3
		c-0.1,0.4,0,0.7,0.2,1l41.4,69.5c0.2,0.3,0.5,0.6,0.9,0.7c0.1,0,0.2,0,0.4,0c0.3,0,0.5-0.1,0.8-0.2l42.8-25.5
		C105.8,199.7,106.1,199.4,106.2,199 M61.5,160.9c-0.7,0.4-1,1.4-0.5,2.1c0.4,0.7,1.4,1,2.1,0.5l14-8.3l6.6,11.1l-14,8.3
		c-0.3,0.2-0.6,0.5-0.7,0.9c-0.1,0.4,0,0.8,0.2,1.2c0.4,0.7,1.4,0.9,2.1,0.5l14-8.3l17.4,29.2l-22.3,13.3l-39.8-66.9l22.3-13.3
		l12.7,21.4L61.5,160.9z M23.9,136.5l-4-6.7c-0.1-0.2-0.2-0.5-0.1-0.8c0.1-0.3,0.2-0.5,0.5-0.6l20.5-12.2c0.2-0.1,0.3-0.1,0.5-0.1
		c0.4,0,0.7,0.2,0.9,0.5l4,6.7L23.9,136.5z M27.5,138.5L49,125.6l10.7,3.8l-21.5,12.8L27.5,138.5z M24.5,140.6l12.8,4.6l40.3,67.7
		L62.4,222l-40.3-67.7L24.5,140.6z"/>
	<path class="st1" d="M141.3,137.3c4,0,7.5-2.6,8.7-6.5c0.7-2.3,0.5-4.8-0.7-7c-1.1-2.2-3.1-3.7-5.4-4.5c-0.9-0.3-1.8-0.4-2.7-0.4
		c-4,0-7.5,2.6-8.7,6.5c-1.5,4.8,1.2,9.9,6,11.4C139.5,137.1,140.4,137.3,141.3,137.3 M135.5,126.3L135.5,126.3
		c0.8-2.6,3.1-4.3,5.8-4.3c0.6,0,1.2,0.1,1.8,0.3c1.6,0.5,2.8,1.5,3.6,3c0.8,1.4,0.9,3.1,0.4,4.6c-0.8,2.6-3.1,4.3-5.8,4.3
		c-0.6,0-1.2-0.1-1.8-0.3C136.3,133,134.5,129.5,135.5,126.3"/>
	<path class="st1" d="M173.3,128.4L173.3,128.4c-0.7-0.2-1.3-0.3-2-0.3c-3,0-5.6,1.9-6.4,4.8c-1.1,3.5,0.9,7.3,4.5,8.4
		c0.6,0.2,1.3,0.3,2,0.3c3,0,5.6-1.9,6.4-4.8c0.5-1.7,0.4-3.5-0.5-5.1C176.4,130.1,175,128.9,173.3,128.4 M174.8,135.9
		c-0.5,1.6-1.9,2.6-3.5,2.6c-0.4,0-0.7-0.1-1.1-0.2c-1.9-0.6-3-2.7-2.4-4.6c0.5-1.6,1.9-2.6,3.5-2.6c0.4,0,0.7,0.1,1.1,0.2
		c0.9,0.3,1.7,0.9,2.2,1.8C175,134,175.1,135,174.8,135.9"/>
	<path class="st1" d="M112,131.5c-0.7-0.2-1.4-0.3-2.1-0.3c-3.2,0-5.9,2-6.9,5.1c-0.6,1.8-0.4,3.8,0.5,5.5c0.9,1.7,2.4,2.9,4.2,3.5
		c0.7,0.2,1.4,0.3,2.1,0.3c3.2,0,5.9-2,6.9-5.1c0.6-1.8,0.4-3.8-0.5-5.5C115.4,133.3,113.9,132,112,131.5 M113.9,139.6L113.9,139.6
		c-0.5,1.8-2.1,2.9-4,2.9c-0.4,0-0.8-0.1-1.2-0.2c-1.1-0.3-1.9-1-2.4-2c-0.5-1-0.6-2.1-0.3-3.2c0.5-1.7,2.1-2.9,4-2.9
		c0.4,0,0.8,0.1,1.2,0.2c1.1,0.3,1.9,1,2.4,2C114.1,137.4,114.2,138.5,113.9,139.6"/>
	<path class="st1" d="M146.2,153.8c-0.6-0.2-1.2-0.3-1.8-0.3c-2.7,0-5,1.7-5.8,4.3c-1,3.2,0.8,6.6,4,7.6c0.6,0.2,1.2,0.3,1.8,0.3
		c2.7,0,5-1.7,5.8-4.3C151.2,158.2,149.4,154.8,146.2,153.8 M147.3,160.6c-0.4,1.3-1.6,2.2-2.9,2.2c-0.3,0-0.6,0-0.9-0.1
		c-0.8-0.2-1.4-0.8-1.8-1.5c-0.4-0.7-0.5-1.6-0.2-2.3c0.4-1.3,1.6-2.2,2.9-2.2c0.3,0,0.6,0,0.9,0.1
		C146.9,157.2,147.8,158.9,147.3,160.6"/>
	<path class="st1" d="M59.5,113.7c4.1,2.1,8.4,3.2,12.7,3.2c10.9,0,20.5-7.1,27.2-20c4.5-8.7,6.5-20.8,5.5-32.9
		c-0.9-11.1-4.2-19.8-8.4-21.9c-1.1-0.6-2.6-0.9-4.2-0.9c-10.7,0-33.1,12.7-42.2,30.3c-4.8,9.3-6.2,18.2-4.2,25.8
		C47.8,104.4,52.5,110.1,59.5,113.7 M52.8,72.9c8.4-16.4,29.8-28.7,39.5-28.7c1.2,0,2.1,0.2,2.8,0.5c3.1,1.6,6,9.8,6.8,19.4
		c1,11.6-0.9,23-5.2,31.3c-6.1,11.8-14.8,18.3-24.5,18.3c-3.8,0-7.6-1-11.3-2.9c-6.3-3.2-10.5-8.2-12.1-14.4
		C47,89.7,48.4,81.5,52.8,72.9"/>
	<path class="st1" d="M154.5,200.4c-1.3,0-2.6,0-4,0.1c-9.8,0.7-21.1,5.2-31,12.5c-9.1,6.6-14.7,13.9-14.4,18.6
		c0.3,4.7,6.4,10.8,15.7,15.9c9.7,5.3,21.1,8.5,30.5,8.5c1,0,2.1,0,3.1-0.1c11.2-0.8,19.6-4.4,25-10.6c4.4-5.1,6.6-12,6.1-19.4
		C184.5,210.1,172.6,200.4,154.5,200.4 M154.3,252.8c-1,0.1-1.9,0.1-2.9,0.1c-20.2,0-42.6-14-43.2-21.6c-0.2-3.5,5.3-10.2,13.1-15.9
		c9.4-6.9,20.2-11.2,29.4-11.9c1.3-0.1,2.5-0.1,3.8-0.1c16.5,0,27,8.5,28,22.6C183.6,241.2,172.8,251.5,154.3,252.8"/>
	<path class="st1" d="M227.7,76.6l-65.2-60.1c-0.3-0.3-0.7-0.4-1.1-0.4c-0.4,0-0.8,0.2-1,0.6l-32.4,41.4c-0.3,0.3-0.4,0.7-0.3,1.1
		c0.1,0.4,0.3,0.8,0.6,1l74,48.8c0.2,0.2,0.5,0.3,0.8,0.3c0.5,0,0.9-0.2,1.2-0.6l23.7-30.2C228.4,78,228.3,77.1,227.7,76.6
		 M181,37.6l-27.9,35.6l-21.9-14.5l30.5-38.9L181,37.6z M224.7,77.8l-22,28.1l-47.1-31.1l27.6-35.2L224.7,77.8z"/>
	<path class="st2" d="M117.7,86.1L117.7,86.1c-0.4,0-0.7,0-1-0.1c-0.5-0.1-0.8-0.5-0.7-1c0.1-0.5,0.5-0.8,1-0.7c0.2,0,0.5,0,0.8,0
		c0.5,0,0.9,0.4,0.9,0.9C118.5,85.7,118.2,86.1,117.7,86.1 M122,84.6c-0.3,0-0.5-0.1-0.7-0.3c-0.3-0.4-0.2-0.9,0.1-1.2
		c0.2-0.2,0.4-0.3,0.6-0.5c0.3-0.3,0.9-0.3,1.2,0c0.3,0.3,0.3,0.9,0,1.2c-0.2,0.2-0.5,0.5-0.8,0.7C122.3,84.5,122.2,84.6,122,84.6
		 M112.7,84c-0.2,0-0.4-0.1-0.6-0.2c-0.2-0.2-0.5-0.5-0.7-0.8c-0.3-0.4-0.2-0.9,0.1-1.2c0.4-0.3,0.9-0.2,1.2,0.1
		c0.2,0.2,0.3,0.4,0.5,0.6c0.3,0.3,0.3,0.9,0,1.2C113.1,84,112.9,84,112.7,84 M124.6,79.9c0,0-0.1,0-0.1,0c-0.5-0.1-0.8-0.5-0.7-1
		c0-0.3,0-0.5,0-0.8c0-0.5,0.4-0.9,0.9-0.9c0.5,0,0.9,0.4,0.9,0.8h-0.9l0.9,0c0,0.4,0,0.7-0.1,1C125.4,79.6,125.1,79.9,124.6,79.9
		 M110.6,79c-0.5,0-0.8-0.3-0.9-0.8v-0.1c0-0.3,0-0.7,0.1-1c0.1-0.5,0.5-0.8,1-0.7c0.5,0.1,0.8,0.5,0.7,1c0,0.3-0.1,0.5-0.1,0.8
		C111.4,78.6,111.1,79,110.6,79L110.6,79z M123.2,74.7c-0.3,0-0.5-0.1-0.7-0.3c-0.2-0.2-0.3-0.4-0.5-0.6c-0.3-0.3-0.3-0.9,0-1.2
		c0.3-0.3,0.9-0.3,1.2,0c0.2,0.2,0.5,0.5,0.7,0.8c0.3,0.4,0.2,0.9-0.2,1.2C123.6,74.6,123.4,74.7,123.2,74.7 M112.7,74
		c-0.2,0-0.4-0.1-0.6-0.3c-0.3-0.3-0.3-0.9,0-1.2c0.2-0.2,0.5-0.5,0.8-0.7c0.4-0.3,0.9-0.2,1.2,0.2c0.3,0.4,0.2,0.9-0.2,1.2
		c-0.2,0.2-0.4,0.3-0.6,0.5C113.1,73.9,112.9,74,112.7,74 M118.5,72c0,0-0.1,0-0.1,0c-0.3,0-0.5,0-0.8,0c-0.5,0-0.9-0.4-0.9-0.9
		c0-0.5,0.4-0.9,0.8-0.9h0c0.3,0,0.7,0,1,0.1c0.5,0.1,0.8,0.5,0.7,1C119.3,71.7,119,72,118.5,72"/>
	<path class="st2" d="M85.1,140.5L85.1,140.5c-0.5,0-0.9-0.4-0.9-0.9v-7.4c0-0.5,0.4-0.9,0.9-0.9c0.5,0,0.9,0.4,0.9,0.9l0,7.4
		C85.9,140.1,85.5,140.5,85.1,140.5"/>
	<path class="st2" d="M81.4,136.8c-0.5,0-0.9-0.4-0.9-0.9c0-0.5,0.4-0.9,0.9-0.9l7.4,0c0.5,0,0.9,0.4,0.9,0.9c0,0.5-0.4,0.9-0.9,0.9
		L81.4,136.8z"/>
	<path class="st2" d="M195.8,222.8c-0.5,0-0.9-0.4-0.9-0.9v-7.4c0-0.5,0.4-0.9,0.9-0.9c0.5,0,0.9,0.4,0.9,0.9v7.4
		C196.7,222.4,196.3,222.8,195.8,222.8"/>
	<path class="st2" d="M192.1,219.1c-0.5,0-0.9-0.4-0.9-0.9c0-0.5,0.4-0.9,0.9-0.9l7.4,0c0.5,0,0.9,0.4,0.9,0.9s-0.4,0.9-0.9,0.9
		L192.1,219.1z"/>
	<path class="st2" d="M42.3,88c-0.5,0-0.9-0.4-0.9-0.9v-7.4c0-0.5,0.4-0.9,0.9-0.9c0.5,0,0.9,0.4,0.9,0.9v7.4
		C43.1,87.6,42.7,88,42.3,88"/>
	<path class="st2" d="M46,84.3h-7.4c-0.5,0-0.9-0.4-0.9-0.9c0-0.5,0.4-0.9,0.9-0.9H46c0.5,0,0.9,0.4,0.9,0.9
		C46.8,83.9,46.4,84.3,46,84.3"/>
	<path class="st2" d="M108,212.3c-0.3,0-0.5-0.1-0.7-0.3l-5-6.8c-0.3-0.4-0.2-0.9,0.2-1.2c0.4-0.3,0.9-0.2,1.2,0.2l5,6.8
		c0.3,0.4,0.2,0.9-0.2,1.2C108.4,212.2,108.2,212.3,108,212.3"/>
	<path class="st2" d="M102.2,211.4c-0.3,0-0.5-0.1-0.7-0.4c-0.3-0.4-0.2-0.9,0.2-1.2l6.8-4.9c0.4-0.3,0.9-0.2,1.2,0.2
		c0.3,0.4,0.2,0.9-0.2,1.2l-6.8,4.9C102.5,211.3,102.4,211.4,102.2,211.4"/>
	<path class="st2" d="M178.6,115.3c-0.3,0-0.5-0.1-0.7-0.3l-5-6.7c-0.3-0.4-0.2-0.9,0.2-1.2c0.4-0.3,0.9-0.2,1.2,0.2l5,6.7
		c0.3,0.4,0.2,0.9-0.2,1.2C178.9,115.2,178.7,115.3,178.6,115.3"/>
	<path class="st2" d="M172.7,114.4c-0.3,0-0.5-0.1-0.7-0.4c-0.3-0.4-0.2-0.9,0.2-1.2l6.7-5c0.4-0.3,0.9-0.2,1.2,0.2
		c0.3,0.4,0.2,0.9-0.2,1.2l-6.8,5C173.1,114.3,172.9,114.4,172.7,114.4"/>
	<path class="st2" d="M233.3,95.4L233.3,95.4c-0.4,0-0.7-0.2-0.8-0.6l-2.1-5.7l-5.7-2.1c-0.3-0.1-0.6-0.4-0.6-0.8
		c0-0.4,0.2-0.7,0.6-0.8l5.7-2.1l2.1-5.7c0.1-0.3,0.4-0.6,0.8-0.6c0.4,0,0.7,0.2,0.8,0.6l2.1,5.7l5.7,2.1c0.3,0.1,0.6,0.4,0.6,0.8
		c0,0.4-0.2,0.7-0.6,0.8l-5.7,2.1l-2.1,5.7C234,95.2,233.7,95.4,233.3,95.4 M227.4,86.2l3.9,1.5c0.2,0.1,0.4,0.3,0.5,0.5l1.5,3.9
		l1.5-3.9c0.1-0.2,0.3-0.4,0.5-0.5l3.9-1.5l-3.9-1.5c-0.2-0.1-0.4-0.3-0.5-0.5l-1.5-3.9l-1.5,3.9c-0.1,0.2-0.3,0.4-0.5,0.5
		L227.4,86.2z"/>
	<path class="st2" d="M30.5,110.9c-0.2,0-0.4-0.1-0.6-0.2c-0.3-0.2-0.3-0.6-0.2-1l2.4-5.6l-2.6-5.5c-0.2-0.3-0.1-0.7,0.2-1
		c0.2-0.3,0.6-0.3,1-0.2l5.6,2.4l5.5-2.6c0.3-0.2,0.7-0.1,1,0.2c0.3,0.2,0.3,0.6,0.2,1l-2.4,5.6l2.5,5.4c0.1,0.1,0.2,0.3,0.2,0.5
		c0,0.5-0.4,0.9-0.9,0.9c0,0,0,0,0,0c-0.1,0-0.2,0-0.3-0.1l-5.6-2.4l-5.5,2.6C30.7,110.8,30.6,110.9,30.5,110.9 M32,99.9l1.8,3.8
		c0.1,0.2,0.1,0.5,0,0.7l-1.7,3.8l3.8-1.8c0.2-0.1,0.5-0.1,0.7,0l3.8,1.7l-1.8-3.8c-0.1-0.2-0.1-0.5,0-0.7l1.7-3.8l-3.8,1.8
		c-0.2,0.1-0.5,0.1-0.7,0L32,99.9z"/>
	<path class="st2" d="M104.9,186.4c-0.2,0-0.4-0.1-0.6-0.2c-0.3-0.2-0.3-0.6-0.2-1l2.4-5.6l-2.6-5.5c-0.2-0.3-0.1-0.7,0.2-1
		c0.2-0.3,0.6-0.3,1-0.2l5.6,2.4l5.5-2.6c0.3-0.2,0.7-0.1,1,0.2c0.3,0.2,0.3,0.6,0.2,1l-2.4,5.6l2.5,5.4c0.1,0.1,0.2,0.3,0.2,0.5
		c0,0.5-0.4,0.9-0.9,0.9h0c-0.1,0-0.2,0-0.3-0.1l-5.6-2.4l-5.5,2.6C105.2,186.4,105.1,186.4,104.9,186.4 M106.5,175.5l1.8,3.8
		c0.1,0.2,0.1,0.5,0,0.7l-1.7,3.8l3.8-1.8c0.2-0.1,0.5-0.1,0.7,0l3.8,1.7l-1.8-3.8c-0.1-0.2-0.1-0.5,0-0.7l1.7-3.8l-3.8,1.8
		c-0.2,0.1-0.5,0.1-0.7,0L106.5,175.5z"/>
	<path class="st2" d="M68.8,132.4c-0.2,0-0.4-0.1-0.6-0.2c-0.3-0.2-0.3-0.6-0.2-1l1.7-3.8l-1.8-3.8c-0.2-0.3-0.1-0.7,0.2-1
		c0.2-0.3,0.6-0.3,1-0.2l3.8,1.7l3.8-1.8c0.3-0.2,0.7-0.1,1,0.2c0.3,0.2,0.3,0.6,0.2,1l-1.7,3.8l1.7,3.6c0.1,0.1,0.2,0.3,0.2,0.5
		c0,0.5-0.4,0.8-0.9,0.9c-0.1,0-0.2,0-0.3-0.1l-3.8-1.7l-3.8,1.8C69,132.4,68.9,132.4,68.8,132.4 M70.4,125l1,2.1
		c0.1,0.2,0.1,0.5,0,0.7l-0.9,2.1l2.1-1c0.2-0.1,0.5-0.1,0.7,0l2.1,0.9l-1-2.1c-0.1-0.2-0.1-0.5,0-0.7l0.9-2.1l-2.1,1
		c-0.2,0.1-0.5,0.1-0.7,0L70.4,125z"/>
	<path class="st2" d="M84.7,232.1c-0.2,0-0.4-0.1-0.6-0.2c-0.3-0.2-0.3-0.6-0.2-1l1.7-3.8l-1.8-3.8c-0.2-0.3-0.1-0.7,0.2-1
		c0.2-0.3,0.6-0.3,1-0.2l3.8,1.7l3.8-1.8c0.3-0.2,0.7-0.1,1,0.2c0.3,0.2,0.3,0.6,0.2,1l-1.7,3.8l1.7,3.6c0.1,0.1,0.2,0.3,0.2,0.5
		c0,0.5-0.4,0.9-0.9,0.9c-0.1,0-0.2,0-0.4-0.1l-3.8-1.7L85,232C84.9,232,84.8,232.1,84.7,232.1 M86.3,224.6l1,2.1
		c0.1,0.2,0.1,0.5,0,0.7l-0.9,2.1l2.1-1c0.2-0.1,0.5-0.1,0.7,0l2.1,0.9l-1-2.1c-0.1-0.2-0.1-0.5,0-0.7l0.9-2.1l-2.1,1
		c-0.2,0.1-0.5,0.1-0.7,0L86.3,224.6z"/>
	<path class="st2" d="M126.9,45.1c-0.4,0-0.7-0.2-0.8-0.5l-2.7-6.8l-6.8-2.4c-0.3-0.1-0.6-0.4-0.6-0.8c0-0.4,0.2-0.7,0.5-0.8
		l6.8-2.7l2.4-6.8c0.1-0.3,0.4-0.6,0.8-0.6c0.4,0,0.7,0.2,0.8,0.5L130,31l6.8,2.4c0.3,0.1,0.6,0.4,0.6,0.8c0,0.4-0.2,0.7-0.5,0.8
		l-6.8,2.7l-2.4,6.8C127.5,44.8,127.2,45.1,126.9,45.1L126.9,45.1z M119.3,34.5l5,1.8c0.2,0.1,0.4,0.3,0.5,0.5l2,5l1.8-5
		c0.1-0.2,0.3-0.4,0.5-0.5l5-2l-5-1.8c-0.2-0.1-0.4-0.3-0.5-0.5l-2-5l-1.8,5c-0.1,0.2-0.3,0.4-0.5,0.5L119.3,34.5z"/>
	<path class="st2" d="M98.2,40.5c-3.4,0-6.1-2.8-6.1-6.1c0-3.4,2.8-6.1,6.1-6.1c3.4,0,6.1,2.8,6.1,6.1
		C104.4,37.8,101.6,40.5,98.2,40.5 M98.2,29.9c-2.4,0-4.4,2-4.4,4.4c0,2.4,2,4.4,4.4,4.4c2.4,0,4.4-2,4.4-4.4
		C102.7,31.9,100.7,29.9,98.2,29.9"/>
	<path class="st2" d="M50.8,66.9c-3.4,0-6.1-2.8-6.1-6.1c0-3.4,2.7-6.1,6.1-6.1c3.4,0,6.1,2.8,6.1,6.1
		C56.9,64.1,54.1,66.9,50.8,66.9 M50.8,56.3c-2.4,0-4.4,2-4.4,4.4c0,2.4,2,4.4,4.4,4.4c2.4,0,4.4-2,4.4-4.4
		C55.2,58.3,53.2,56.3,50.8,56.3"/>
	<path class="st2" d="M111.6,53.6L111.6,53.6c-2.2,0-4-1.8-4-4c0-2.2,1.8-4,4-4c2.2,0,4,1.8,4,4C115.6,51.8,113.8,53.6,111.6,53.6
		 M111.6,47.4c-1.2,0-2.3,1-2.3,2.3c0,1.2,1,2.3,2.2,2.3c1.2,0,2.3-1,2.3-2.3C113.9,48.4,112.8,47.4,111.6,47.4"/>
	<path class="st2" d="M93,246L93,246c-2.2,0-4-1.8-4-4c0-2.2,1.8-4,4-4c2.2,0,4,1.8,4,4C96.9,244.2,95.2,246,93,246 M93,239.8
		c-1.2,0-2.3,1-2.3,2.3c0,1.2,1,2.3,2.3,2.3c1.2,0,2.3-1,2.3-2.3C95.2,240.8,94.2,239.8,93,239.8"/>
	<path class="st2" d="M213.3,131.1c-0.3,0-0.7,0-1-0.1c-0.5-0.1-0.8-0.5-0.7-1c0.1-0.5,0.5-0.8,1-0.7c0.3,0,0.5,0,0.8,0
		c0.5,0,0.9,0.4,0.9,0.9C214.2,130.7,213.8,131.1,213.3,131.1l0-0.9L213.3,131.1L213.3,131.1z M217.6,129.6c-0.3,0-0.5-0.1-0.7-0.3
		c-0.3-0.4-0.2-0.9,0.1-1.2c0.2-0.2,0.4-0.3,0.6-0.5c0.3-0.3,0.9-0.3,1.2,0c0.3,0.3,0.3,0.9,0,1.2c-0.2,0.2-0.5,0.5-0.8,0.7
		C218,129.5,217.8,129.6,217.6,129.6 M208.3,129c-0.2,0-0.4-0.1-0.6-0.2c-0.2-0.2-0.5-0.5-0.7-0.8c-0.3-0.4-0.2-0.9,0.1-1.2
		c0.4-0.3,0.9-0.2,1.2,0.1c0.2,0.2,0.3,0.4,0.5,0.6c0.3,0.3,0.3,0.9,0,1.2C208.8,129,208.6,129,208.3,129 M220.3,124.9
		c0,0-0.1,0-0.1,0c-0.5-0.1-0.8-0.5-0.7-1c0-0.3,0.1-0.5,0.1-0.8c0-0.5,0.4-0.9,0.9-0.9c0.5,0,0.9,0.4,0.9,0.8v0c0,0.3,0,0.7-0.1,1
		C221.1,124.6,220.7,124.9,220.3,124.9 M206.2,124c-0.5,0-0.8-0.3-0.9-0.8v-0.1c0-0.3,0-0.7,0.1-1c0.1-0.5,0.5-0.8,1-0.7
		c0.5,0.1,0.8,0.5,0.7,1c0,0.3,0,0.5,0,0.8C207.1,123.6,206.7,124,206.2,124L206.2,124z M218.9,119.7c-0.3,0-0.5-0.1-0.7-0.3
		c-0.2-0.2-0.3-0.4-0.5-0.6c-0.3-0.3-0.3-0.9,0-1.2c0.3-0.3,0.9-0.3,1.2,0c0.2,0.2,0.5,0.5,0.7,0.8c0.3,0.4,0.2,0.9-0.2,1.2
		C219.2,119.6,219.1,119.7,218.9,119.7 M208.3,119c-0.2,0-0.4-0.1-0.6-0.3c-0.3-0.3-0.3-0.9,0-1.2c0.2-0.2,0.5-0.5,0.8-0.7
		c0.4-0.3,0.9-0.2,1.2,0.2c0.3,0.4,0.2,0.9-0.2,1.2c-0.2,0.2-0.4,0.3-0.6,0.5C208.7,118.9,208.5,119,208.3,119 M214.2,117
		c0,0-0.1,0-0.1,0c-0.3,0-0.5-0.1-0.8-0.1c-0.5,0-0.9-0.4-0.9-0.9c0-0.5,0.4-0.9,0.8-0.9h0c0.3,0,0.7,0,1,0.1c0.5,0.1,0.8,0.5,0.7,1
		C215,116.7,214.6,117,214.2,117"/>
	<path class="st2" d="M163.5,104.4L163.5,104.4c-0.2,0-0.4,0-0.6,0c-0.5-0.1-0.8-0.5-0.7-1c0.1-0.5,0.5-0.8,1-0.7c0.1,0,0.3,0,0.4,0
		c0.5,0,0.9,0.4,0.9,0.9S164,104.4,163.5,104.4 M166,103.5c-0.3,0-0.5-0.1-0.7-0.3c-0.3-0.4-0.2-0.9,0.1-1.2
		c0.1-0.1,0.2-0.2,0.3-0.3c0.3-0.3,0.9-0.3,1.2,0c0.3,0.3,0.3,0.9,0,1.2c-0.1,0.2-0.3,0.3-0.5,0.4
		C166.4,103.5,166.2,103.5,166,103.5 M160.6,103.2c-0.2,0-0.4-0.1-0.6-0.2c-0.2-0.1-0.3-0.3-0.4-0.5c-0.3-0.4-0.2-0.9,0.1-1.2
		c0.4-0.3,0.9-0.2,1.2,0.1c0.1,0.1,0.2,0.2,0.3,0.3c0.3,0.3,0.3,0.9,0,1.2C161,103.1,160.8,103.2,160.6,103.2 M167.5,100.8
		c0,0-0.1,0-0.1,0c-0.5-0.1-0.8-0.5-0.7-1c0-0.1,0-0.3,0-0.4c0-0.5,0.4-0.9,0.9-0.9c0.5,0,0.9,0.4,0.9,0.8v0c0,0.2,0,0.4,0,0.6
		C168.3,100.5,168,100.8,167.5,100.8 M159.4,100.3c-0.5,0-0.9-0.4-0.9-0.8h0.9l-0.9,0c0-0.2,0-0.5,0-0.7c0.1-0.5,0.5-0.8,1-0.7
		c0.5,0.1,0.8,0.5,0.7,1c0,0.1,0,0.3,0,0.4C160.2,99.9,159.8,100.3,159.4,100.3 M166.7,97.8c-0.3,0-0.5-0.1-0.7-0.3
		c-0.1-0.1-0.2-0.2-0.3-0.3c-0.3-0.3-0.3-0.9,0-1.2c0.3-0.3,0.9-0.3,1.2,0c0.2,0.2,0.3,0.3,0.4,0.5c0.3,0.4,0.2,0.9-0.2,1.2
		C167.1,97.7,166.9,97.8,166.7,97.8 M160.6,97.4c-0.2,0-0.4-0.1-0.6-0.2c-0.3-0.3-0.3-0.9,0-1.2c0.2-0.2,0.3-0.3,0.5-0.4
		c0.4-0.3,0.9-0.2,1.2,0.2c0.3,0.4,0.2,0.9-0.2,1.2c-0.1,0.1-0.2,0.2-0.3,0.3C161,97.3,160.8,97.4,160.6,97.4 M164,96.2
		c0,0-0.1,0-0.1,0c-0.1,0-0.3,0-0.4,0c-0.5,0-0.9-0.4-0.9-0.9c0-0.5,0.4-0.9,0.9-0.9h0c0.2,0,0.4,0,0.6,0c0.5,0.1,0.8,0.5,0.7,1
		C164.8,95.9,164.4,96.2,164,96.2"/>
	<path class="st2" d="M68.7,51.5c-0.2,0-0.4,0-0.6,0c-0.5-0.1-0.8-0.5-0.7-1c0.1-0.5,0.5-0.8,1-0.7c0.1,0,0.3,0,0.4,0
		c0.5,0,0.9,0.4,0.9,0.9C69.5,51.1,69.2,51.5,68.7,51.5l0-0.9L68.7,51.5L68.7,51.5z M71.2,50.6c-0.3,0-0.5-0.1-0.7-0.3
		c-0.3-0.4-0.2-0.9,0.2-1.2c0.1-0.1,0.2-0.2,0.3-0.3c0.3-0.3,0.9-0.3,1.2,0c0.3,0.3,0.3,0.9,0,1.2c-0.2,0.2-0.3,0.3-0.5,0.4
		C71.5,50.6,71.3,50.6,71.2,50.6 M65.8,50.3c-0.2,0-0.4-0.1-0.6-0.2c-0.2-0.1-0.3-0.3-0.4-0.5c-0.3-0.4-0.2-0.9,0.1-1.2
		c0.4-0.3,0.9-0.2,1.2,0.1c0.1,0.1,0.2,0.2,0.3,0.3c0.3,0.3,0.3,0.9,0,1.2C66.2,50.2,66,50.3,65.8,50.3 M72.7,47.9c0,0-0.1,0-0.1,0
		c-0.5-0.1-0.8-0.5-0.7-1c0-0.1,0-0.3,0-0.4c0-0.5,0.4-0.9,0.9-0.9c0.5,0,0.9,0.4,0.9,0.8v0c0,0.2,0,0.4,0,0.6
		C73.5,47.6,73.1,47.9,72.7,47.9 M64.5,47.4c-0.5,0-0.9-0.4-0.9-0.8v0c0-0.2,0-0.4,0-0.6c0.1-0.5,0.5-0.8,1-0.7
		c0.5,0.1,0.8,0.5,0.7,1c0,0.1,0,0.3,0,0.4C65.4,47,65,47.4,64.5,47.4 M71.9,44.9c-0.3,0-0.5-0.1-0.7-0.3c-0.1-0.1-0.2-0.2-0.3-0.3
		c-0.3-0.3-0.3-0.9,0-1.2c0.3-0.3,0.9-0.3,1.2,0c0.2,0.2,0.3,0.3,0.4,0.5c0.3,0.4,0.2,0.9-0.2,1.2C72.3,44.8,72.1,44.9,71.9,44.9
		 M65.7,44.5c-0.2,0-0.4-0.1-0.6-0.2c-0.3-0.3-0.3-0.9,0-1.2c0.2-0.2,0.3-0.3,0.5-0.4c0.4-0.3,0.9-0.2,1.2,0.2
		c0.3,0.4,0.2,0.9-0.2,1.2c-0.1,0.1-0.2,0.2-0.3,0.3C66.2,44.4,66,44.5,65.7,44.5 M69.2,43.3c0,0-0.1,0-0.1,0c-0.1,0-0.3,0-0.4,0
		c-0.5,0-0.9-0.4-0.9-0.9c0-0.5,0.4-0.9,0.9-0.9h0c0.2,0,0.4,0,0.6,0c0.5,0.1,0.8,0.5,0.7,1C70,43,69.6,43.3,69.2,43.3"/>
	<path class="st2" d="M158.4,198.7L158.4,198.7c-0.2,0-0.4,0-0.6,0c-0.5-0.1-0.8-0.5-0.7-1c0.1-0.5,0.5-0.8,1-0.7c0.1,0,0.3,0,0.4,0
		c0.5,0,0.9,0.4,0.9,0.9C159.2,198.3,158.9,198.7,158.4,198.7 M160.9,197.8c-0.3,0-0.5-0.1-0.7-0.3c-0.3-0.4-0.2-0.9,0.1-1.2
		c0.1-0.1,0.2-0.2,0.3-0.3c0.3-0.3,0.9-0.3,1.2,0c0.3,0.3,0.3,0.9,0,1.2c-0.2,0.2-0.3,0.3-0.5,0.4
		C161.3,197.8,161.1,197.8,160.9,197.8 M155.5,197.5c-0.2,0-0.4-0.1-0.6-0.2c-0.2-0.2-0.3-0.3-0.4-0.5c-0.3-0.4-0.2-0.9,0.1-1.2
		c0.4-0.3,0.9-0.2,1.2,0.1c0.1,0.1,0.2,0.2,0.3,0.3c0.3,0.3,0.3,0.9,0,1.2C155.9,197.5,155.7,197.5,155.5,197.5 M162.4,195.1
		c0,0-0.1,0-0.1,0c-0.5-0.1-0.8-0.5-0.7-1c0-0.1,0-0.3,0-0.4c0-0.5,0.4-0.9,0.9-0.9s0.9,0.4,0.9,0.8h-0.9l0.9,0c0,0.2,0,0.4,0,0.6
		C163.2,194.8,162.9,195.1,162.4,195.1 M154.3,194.6c-0.5,0-0.9-0.4-0.9-0.8v0c0-0.2,0-0.4,0-0.6c0.1-0.5,0.5-0.8,1-0.7
		c0.5,0.1,0.8,0.5,0.7,1c0,0.1,0,0.3,0,0.4C155.1,194.2,154.7,194.6,154.3,194.6 M161.6,192.1c-0.3,0-0.5-0.1-0.7-0.3
		c-0.1-0.1-0.2-0.2-0.3-0.3c-0.3-0.3-0.3-0.9,0-1.2c0.3-0.3,0.9-0.3,1.2,0c0.2,0.2,0.3,0.3,0.4,0.5c0.3,0.4,0.2,0.9-0.1,1.2
		C162,192,161.8,192.1,161.6,192.1 M155.5,191.7c-0.2,0-0.4-0.1-0.6-0.3c-0.3-0.3-0.3-0.9,0-1.2c0.2-0.2,0.3-0.3,0.5-0.4
		c0.4-0.3,0.9-0.2,1.2,0.2c0.3,0.4,0.2,0.9-0.2,1.2c-0.1,0.1-0.2,0.2-0.3,0.3C155.9,191.6,155.7,191.7,155.5,191.7 M158.9,190.5
		c0,0-0.1,0-0.1,0c-0.1,0-0.3,0-0.4,0c-0.5,0-0.9-0.4-0.9-0.9c0-0.5,0.4-0.9,0.9-0.9h0c0.2,0,0.4,0,0.6,0c0.5,0.1,0.8,0.5,0.7,1
		C159.7,190.2,159.3,190.5,158.9,190.5"/>
	<path class="st2" d="M222.4,109.9c-0.2,0-0.4-0.1-0.6-0.2c-0.3-0.3-0.4-0.9,0-1.2l5.1-5.4c0.3-0.3,0.9-0.4,1.2,0
		c0.3,0.3,0.4,0.9,0,1.2l-5.1,5.4C222.9,109.8,222.6,109.9,222.4,109.9"/>
	<path class="st2" d="M227.6,109.7c-0.2,0-0.4-0.1-0.6-0.2l-5.4-5.1c-0.3-0.3-0.4-0.9,0-1.2c0.3-0.3,0.9-0.4,1.2,0l5.4,5.1
		c0.3,0.3,0.4,0.9,0,1.2C228.1,109.6,227.9,109.7,227.6,109.7"/>
	<path class="st2" d="M208.1,59c-0.2,0-0.4-0.1-0.6-0.2c-0.3-0.3-0.4-0.9,0-1.2l5.1-5.4c0.3-0.3,0.9-0.4,1.2,0
		c0.3,0.3,0.4,0.9,0,1.2l-5.1,5.4C208.5,58.9,208.3,59,208.1,59"/>
	<path class="st2" d="M213.3,58.8c-0.2,0-0.4-0.1-0.6-0.2l-5.4-5.1c-0.3-0.3-0.4-0.9,0-1.2c0.3-0.3,0.9-0.4,1.2,0l5.4,5.1
		c0.3,0.3,0.4,0.9,0,1.2C213.7,58.7,213.5,58.8,213.3,58.8"/>
	<path class="st2" d="M252.4,139.5c-0.2,0-0.4-0.1-0.6-0.2c-0.3-0.3-0.4-0.9,0-1.2l5.1-5.4c0.3-0.3,0.9-0.4,1.2,0
		c0.3,0.3,0.4,0.9,0,1.2l-5.1,5.4C252.9,139.4,252.6,139.5,252.4,139.5"/>
	<path class="st2" d="M257.6,139.3c-0.2,0-0.4-0.1-0.6-0.2l-5.4-5.1c-0.3-0.3-0.4-0.9,0-1.2c0.3-0.3,0.9-0.4,1.2,0l5.4,5.1
		c0.3,0.3,0.4,0.9,0,1.2C258.1,139.2,257.9,139.3,257.6,139.3"/>
	<path class="st2" d="M140.6,93.7c-0.5,0-0.8-0.4-0.9-0.8l-0.4-13.7c0-0.5,0.4-0.9,0.8-0.9c0.5,0,0.9,0.4,0.9,0.8l0.4,13.7
		C141.5,93.3,141.1,93.7,140.6,93.7L140.6,93.7z"/>
	<path class="st2" d="M133.5,87.1c-0.5,0-0.8-0.4-0.9-0.8c0-0.5,0.4-0.9,0.8-0.9l13.7-0.4c0.5,0,0.9,0.4,0.9,0.8
		c0,0.5-0.4,0.9-0.8,0.9L133.5,87.1L133.5,87.1z"/>
	<path class="st2" d="M131.8,198.5c-0.5,0-0.8-0.4-0.9-0.8l-0.4-13.7c0-0.5,0.4-0.9,0.8-0.9c0.5,0,0.9,0.4,0.9,0.8l0.4,13.7
		C132.6,198.1,132.3,198.5,131.8,198.5L131.8,198.5z"/>
	<path class="st2" d="M124.7,191.9c-0.5,0-0.8-0.4-0.9-0.8c0-0.5,0.4-0.9,0.8-0.9l13.7-0.4c0.5,0,0.9,0.4,0.9,0.8
		c0,0.5-0.4,0.9-0.8,0.9L124.7,191.9L124.7,191.9z"/>
	<path class="st2" d="M192.6,44.2c-0.5,0-0.9-0.4-0.9-0.9V36c0-0.5,0.4-0.9,0.9-0.9c0.5,0,0.9,0.4,0.9,0.9v7.4
		C193.4,43.8,193.1,44.2,192.6,44.2"/>
	<path class="st2" d="M196.3,40.5h-7.4c-0.5,0-0.9-0.4-0.9-0.9c0-0.5,0.4-0.9,0.9-0.9h7.4c0.5,0,0.9,0.4,0.9,0.9
		C197.1,40.1,196.7,40.5,196.3,40.5"/>
</g>
</svg>
