<?xml version="1.0" encoding="utf-8"?>
<!-- Generator: Adobe Illustrator 24.3.0, SVG Export Plug-In . SVG Version: 6.00 Build 0)  -->
<svg version="1.1" id="Layer_1" xmlns="http://www.w3.org/2000/svg" xmlns:xlink="http://www.w3.org/1999/xlink" x="0px" y="0px"
	 width="246.1px" height="250.4px" viewBox="0 0 246.1 250.4" style="enable-background:new 0 0 246.1 250.4;" xml:space="preserve"
	>
<style type="text/css">
	.st0{fill:#FDF1EE;}
	.st1{fill:#52999D;}
	.st2{fill:#E17863;}
</style>
<g>
	<path class="st0" d="M142.5,93.5c0,35.5-28.8,64.3-64.3,64.3S14,129,14,93.5C14,58,42.8,29.2,78.3,29.2S142.5,58,142.5,93.5"/>
	<path class="st0" d="M145.1,217.6c0,18.1-14.7,32.8-32.8,32.8c-18.1,0-32.7-14.7-32.7-32.8c0-18.1,14.7-32.7,32.7-32.7
		C130.5,184.9,145.1,199.5,145.1,217.6"/>
	<path class="st0" d="M246.1,132c0,23-18.6,41.6-41.6,41.6c-22.9,0-41.6-18.6-41.6-41.6c0-22.9,18.6-41.6,41.6-41.6
		C227.5,90.4,246.1,109,246.1,132"/>
	<path class="st0" d="M200.4,43.9c0,14.7-11.9,26.6-26.6,26.6c-14.7,0-26.6-11.9-26.6-26.6c0-14.7,11.9-26.6,26.6-26.6
		C188.5,17.3,200.4,29.2,200.4,43.9"/>
	<path class="st1" d="M187.2,79.3L187.2,79.3c-7.3,0-14.8-3.3-21.6-9.6c-1.2-1.1-2.9-2.8-4.2-4.2c-2.3,2.3-5.5,4.2-9.2,5.3
		c-1.5,0.5-3.2,0.7-4.9,0.7c-6.6,0-13.7-3.9-15.1-8.4c-0.6-2-0.8-3.8,0.6-5.9c-2.2-1.6-3.5-3.7-3.6-5.9c-0.1-2.2,1-4.4,3.1-6.2
		c-1.7-2.1-2.4-4.5-1.9-6.6c0.5-2.2,2.1-4,4.5-5.2c-1.1-2.5-1.2-4.9-0.2-6.9c1-2,3-3.3,5.7-3.8c-0.4-2.7,0.1-5.1,1.6-6.7
		c1.5-1.6,3.8-2.4,6.5-2.2c0.3-2.7,1.4-4.9,3.3-6c1.9-1.2,4.3-1.3,6.9-0.4c1-2.6,2.6-4.3,4.8-5c2.1-0.7,4.5-0.2,6.8,1.4
		c1.6-2.2,3.7-3.5,5.9-3.6c2.2-0.1,4.4,1,6.2,3.1c1.2-0.9,2.4-1.4,3.8-1.4c0.6,0,1.3,0.1,2.1,0.3c5.6,1.2,11.2,11,9.4,19.2
		c-0.8,3.8-2.4,7.1-4.5,9.6c1.5,1.2,3.3,2.7,4.6,3.8c6.6,6,10.5,12.9,11.4,19.8c0.8,6.5-1.2,12.8-5.6,17.7
		C199.2,76.7,193.4,79.3,187.2,79.3 M161.4,62.7L161.4,62.7c0.3,0,0.6,0.1,0.8,0.4c1.2,1.4,3.4,3.6,4.8,4.9
		c6.5,5.9,13.5,9.1,20.2,9.1c5.7,0,10.7-2.2,14.6-6.5c4-4.4,5.8-10.1,5.1-16c-0.8-6.4-4.5-12.8-10.7-18.5c-1.4-1.3-3.8-3.3-5.3-4.4
		c-0.3-0.2-0.4-0.5-0.4-0.8c0-0.3,0.1-0.6,0.3-0.8c2.2-2.2,3.9-5.7,4.8-9.5c1.7-7.6-3.6-15.8-7.8-16.7c-0.6-0.1-1.2-0.2-1.6-0.2
		c-0.8,0-1.8,0.2-3.2,1.6c-0.2,0.2-0.5,0.3-0.8,0.3c-0.3,0-0.6-0.2-0.8-0.4c-1.4-2-3.2-3.1-4.9-3.1l-0.2,0c-1.8,0.1-3.5,1.3-4.8,3.5
		c-0.2,0.3-0.4,0.4-0.7,0.5c-0.3,0.1-0.6,0-0.9-0.2c-2-1.6-4-2.2-5.7-1.7c-1.7,0.5-3,2.2-3.7,4.6c-0.1,0.3-0.3,0.5-0.6,0.7
		c-0.3,0.1-0.6,0.1-0.9,0c-2.3-1-4.4-1.1-5.9-0.1c-1.5,1-2.3,2.9-2.4,5.4c0,0.3-0.1,0.6-0.4,0.8c-0.2,0.2-0.6,0.3-0.9,0.2
		c-0.6-0.1-1.1-0.1-1.6-0.1c-1.2,0-3,0.3-4.1,1.5c-1.2,1.3-1.5,3.4-0.9,5.9c0.1,0.3,0,0.6-0.2,0.9c-0.2,0.3-0.5,0.4-0.8,0.5
		c-2.5,0.3-4.4,1.3-5.2,2.9c-0.8,1.6-0.6,3.7,0.7,5.9c0.2,0.3,0.2,0.6,0.1,0.9c-0.1,0.3-0.3,0.5-0.6,0.6c-2.4,0.9-3.9,2.4-4.3,4.1
		c-0.4,1.7,0.4,3.7,2.2,5.5c0.2,0.2,0.3,0.5,0.3,0.8c0,0.3-0.2,0.6-0.4,0.8c-2.1,1.5-3.2,3.3-3.1,5.1c0.1,1.8,1.3,3.5,3.5,4.8
		c0.3,0.2,0.4,0.4,0.5,0.7c0.1,0.3,0,0.6-0.2,0.9c-1.5,1.9-1.5,3-0.9,4.9c1,3.2,6.9,6.9,13.1,6.9c1.5,0,2.9-0.2,4.2-0.6
		c3.7-1.2,7-3.2,9.1-5.6C160.8,62.9,161.1,62.7,161.4,62.7"/>
	<path class="st1" d="M202.6,72.4c-0.3,0-0.5-0.1-0.7-0.3l-41.5-38.1c-0.4-0.4-0.5-1.1-0.1-1.5c0.4-0.4,1.1-0.5,1.5-0.1l41.5,38.1
		c0.4,0.4,0.5,1.1,0.1,1.5C203.2,72.3,202.9,72.4,202.6,72.4"/>
	<path class="st1" d="M172.7,45.1c-0.1,0-0.2,0-0.2,0l-17.9-3.9c-0.6-0.1-0.9-0.7-0.8-1.3c0.1-0.6,0.7-0.9,1.3-0.8L173,43
		c0.6,0.1,0.9,0.7,0.8,1.3C173.7,44.7,173.2,45.1,172.7,45.1"/>
	<path class="st1" d="M188.1,59.2c-0.1,0-0.1,0-0.2,0l-37.2-7.6c-0.6-0.1-1-0.7-0.8-1.3c0.1-0.6,0.7-1,1.3-0.8l37.2,7.7
		c0.6,0.1,1,0.7,0.8,1.3C189.1,58.8,188.6,59.2,188.1,59.2"/>
	<path class="st1" d="M172.7,45.1c-0.5,0-0.9-0.3-1-0.8l-5.4-17.5c-0.2-0.6,0.1-1.2,0.7-1.3c0.6-0.2,1.2,0.1,1.3,0.7l5.4,17.5
		c0.2,0.6-0.1,1.2-0.7,1.3C173,45.1,172.8,45.1,172.7,45.1"/>
	<path class="st1" d="M188.1,59.2c-0.5,0-0.9-0.3-1-0.8L176.2,22c-0.2-0.6,0.2-1.2,0.7-1.3c0.6-0.2,1.2,0.2,1.3,0.7l10.9,36.4
		c0.2,0.6-0.2,1.2-0.7,1.3C188.3,59.2,188.2,59.2,188.1,59.2"/>
	<path class="st1" d="M11.7,127.8c-0.9,0-1.7-0.2-2.5-0.6c-1.2-0.7-2-1.7-2.4-3c-0.4-1.3-0.2-2.7,0.4-3.8l3.6-6.5l-4.2,1.4
		c-2.7,0.9-5.5-0.6-6.4-3.2c-0.4-1.3-0.3-2.7,0.3-3.9c0.6-1.2,1.7-2.1,2.9-2.5l14.6-4.8l6.7-12.1c0.3-0.5,0.9-0.7,1.5-0.4
		c0.5,0.3,0.7,0.9,0.4,1.5l-6.9,12.5c-0.1,0.2-0.3,0.4-0.6,0.5l-15,5c-0.7,0.2-1.3,0.8-1.7,1.5c-0.4,0.7-0.4,1.5-0.2,2.2
		c0.5,1.5,2.2,2.4,3.7,1.9l6.8-2.2c0.4-0.1,0.9,0,1.2,0.3c0.3,0.3,0.3,0.8,0.1,1.2l-4.9,8.9c-0.4,0.7-0.5,1.5-0.3,2.2
		c0.2,0.8,0.7,1.4,1.4,1.8c0.7,0.4,1.5,0.5,2.2,0.3c0.7-0.2,1.4-0.7,1.7-1.4l9.2-16.6c0.2-0.4,0.6-0.6,1-0.5c0.4,0,0.8,0.3,0.9,0.7
		l3.1,8.4c0.3,0.7,0.8,1.3,1.5,1.6c0.7,0.3,1.5,0.4,2.2,0.1c1.5-0.5,2.3-2.2,1.7-3.7l-5.4-14.9c-0.1-0.3-0.1-0.6,0.1-0.9l3.2-5.8
		c0.3-0.5,0.9-0.7,1.5-0.4c0.5,0.3,0.7,0.9,0.4,1.5l-3,5.3l5.2,14.5c1,2.6-0.4,5.5-3,6.5c-1.3,0.5-2.6,0.4-3.9-0.2
		c-1.2-0.6-2.2-1.6-2.6-2.9l-2.3-6.2l-8.1,14.6c-0.7,1.2-1.7,2-3,2.4C12.6,127.8,12.1,127.8,11.7,127.8"/>
	<path class="st1" d="M43.9,97.5c-5.2,0-10.5-2.7-15-5.2c-5.5-3.1-11.1-6.5-13.4-12.1C13,74.3,14.4,66.9,19.9,57
		c11-19.8,40.6-42,49.8-42c0.8,0,1.4,0.1,2,0.4c8,4.4,2.8,46.3-8.1,65.9C57.4,92.3,51.2,97.5,43.9,97.5 M69.7,17.1
		c-7.7,0-36.8,21-47.9,40.9c-5.1,9.2-6.5,16.1-4.3,21.3c2.1,4.9,7.3,8.1,12.5,11c5.5,3.1,9.7,4.9,14,4.9c6.4,0,12.1-4.8,17.8-15
		c5.1-9.2,9.2-23.5,10.9-38.2c1.7-14.6,0.3-23.5-2-24.8C70.4,17.2,70.1,17.1,69.7,17.1"/>
	<path class="st1" d="M52.6,83.8c-0.2,0-0.4,0-0.5-0.1l-8.8-4.9c-0.5-0.3-0.7-0.9-0.4-1.5c0.3-0.5,0.9-0.7,1.5-0.4l8.8,4.9
		c0.5,0.3,0.7,0.9,0.4,1.5C53.4,83.6,53,83.8,52.6,83.8"/>
	<path class="st1" d="M41.2,59.1c-0.2,0-0.4,0-0.5-0.1l-8.8-4.9c-0.5-0.3-0.7-0.9-0.4-1.5c0.3-0.5,0.9-0.7,1.5-0.4l8.8,4.9
		c0.5,0.3,0.7,0.9,0.4,1.5C42,58.9,41.6,59.1,41.2,59.1"/>
	<path class="st1" d="M65.7,47.5c-0.2,0-0.4,0-0.5-0.1l-8.8-4.9c-0.5-0.3-0.7-0.9-0.4-1.5c0.3-0.5,0.9-0.7,1.5-0.4l8.8,4.9
		c0.5,0.3,0.7,0.9,0.4,1.5C66.4,47.3,66,47.5,65.7,47.5"/>
	<path class="st1" d="M218.1,178c-8,0-19.7-6.6-29.8-16.7c-6.7-6.7-11.9-14.1-14.6-20.8c-2.9-7-2.7-12.6,0.4-15.7
		c1.6-1.6,3.9-2.4,6.7-2.4c8,0,19.7,6.6,29.8,16.7c6.7,6.7,11.9,14.1,14.6,20.8c2.9,7,2.7,12.6-0.4,15.7
		C223.2,177.2,221,178,218.1,178 M180.7,124.5c-2.3,0-4,0.6-5.2,1.8c-2.4,2.4-2.4,7.3,0.1,13.4c2.6,6.5,7.7,13.6,14.2,20.1
		c9.8,9.8,20.9,16.1,28.3,16.1c2.3,0,4-0.6,5.2-1.8c2.4-2.4,2.4-7.3-0.1-13.4c-2.6-6.5-7.7-13.6-14.2-20.1
		C199.3,130.8,188.2,124.5,180.7,124.5"/>
	<path class="st1" d="M233.8,151.7L233.8,151.7c-0.1,0-0.3,0-0.4,0c-0.4,0-0.8-0.3-1-0.7c-2.2-6.3-7.2-13.6-13.7-20.1
		c-6.5-6.5-13.8-11.5-20.1-13.7c-0.4-0.1-0.7-0.5-0.7-1c-0.1-2.5,0.6-4.4,1.9-5.8c1.3-1.3,3.1-1.9,5.3-1.9c6.2,0,15.2,5.1,23.1,12.9
		c11,11,15.8,23.5,10.9,28.4C237.9,151.1,236.1,151.7,233.8,151.7 M200,115.5c6.4,2.4,13.7,7.5,20.2,13.9
		c6.5,6.5,11.5,13.8,13.9,20.2c1.5-0.1,2.7-0.5,3.5-1.3c3.5-3.5-0.1-14.5-10.9-25.4c-7.3-7.3-16-12.2-21.6-12.2
		c-1.7,0-2.9,0.4-3.8,1.3C200.5,112.8,200.1,114,200,115.5"/>
	<path class="st1" d="M227.2,165.8L227.2,165.8c-0.6,0-1.1,0-1.7-0.1c-0.5,0-0.8-0.4-0.9-0.8c-1.7-7.2-7.6-16.3-15.5-24.3
		c-8-8-17-13.8-24.3-15.5c-0.4-0.1-0.8-0.5-0.8-0.9c-0.4-3.4,0.4-6.2,2.2-8c1.5-1.5,3.6-2.3,6.3-2.3c7.5,0,18.4,6.1,27.8,15.5
		c13.3,13.3,19.1,28.3,13.3,34.1C232,165,229.9,165.8,227.2,165.8 M226.5,163.6c2.4,0.1,4.3-0.4,5.5-1.6c4.8-4.8-1.3-19.1-13.3-31.1
		c-9.1-9.1-19.4-14.9-26.3-14.9c-2.1,0-3.7,0.6-4.8,1.6c-1.5,1.5-1.7,3.7-1.6,5.5c7.5,2,16.6,7.9,24.6,15.9
		C218.5,147,224.4,156.1,226.5,163.6"/>
	<path class="st1" d="M193.6,192c-6.2,0-15.2-5.1-23.1-12.9c-5.1-5.1-9.2-10.9-11.3-16.1c-2.2-5.5-2.1-9.9,0.3-12.3
		c1.4-1.4,3.3-2,5.8-1.9c0.4,0,0.8,0.3,1,0.7c2.2,6.3,7.2,13.6,13.7,20.1c6.5,6.5,13.8,11.5,20.1,13.7c0.4,0.1,0.7,0.5,0.7,1
		c0.1,2.5-0.6,4.4-1.9,5.8C197.6,191.3,195.8,192,193.6,192 M164.5,151c-1.5,0.1-2.7,0.5-3.5,1.3c-1.8,1.8-1.7,5.4,0.1,10
		c2,4.9,5.9,10.4,10.8,15.3c7.3,7.3,16,12.2,21.6,12.2c1.7,0,2.9-0.4,3.8-1.3c0.8-0.8,1.2-2,1.3-3.5c-6.4-2.4-13.7-7.5-20.2-13.9
		C172,164.7,167,157.4,164.5,151"/>
	<path class="st1" d="M206.3,186.7c-7.5,0-18.4-6.1-27.8-15.5c-6.2-6.2-11.1-13.1-13.6-19.4c-2.7-6.6-2.6-11.8,0.3-14.7
		c1.8-1.8,4.5-2.6,8-2.2c0.4,0.1,0.8,0.4,0.9,0.8c1.7,7.2,7.6,16.3,15.5,24.3c8,8,17,13.8,24.3,15.5c0.4,0.1,0.8,0.5,0.8,0.9
		c0.4,3.4-0.4,6.2-2.2,8C211.1,185.9,209,186.7,206.3,186.7 M171.5,136.9c-2.1,0-3.7,0.6-4.8,1.6c-2.2,2.2-2.2,6.7,0.1,12.4
		c2.5,6,7.1,12.7,13.2,18.7c9.1,9.1,19.4,14.9,26.3,14.9c2.1,0,3.7-0.6,4.8-1.6c1.5-1.5,1.7-3.7,1.6-5.5c-7.5-2-16.6-7.9-24.5-15.9
		c-8-8-13.9-17.1-15.9-24.5C172,136.9,171.7,136.9,171.5,136.9"/>
	<path class="st1" d="M227.9,188.8c-0.4,0-0.7-0.2-0.9-0.5l-7.1-11c-0.2-0.3-0.2-0.7-0.1-1s0.4-0.6,0.7-0.6c1.1-0.3,2.1-0.8,2.8-1.5
		c0.6-0.6,1.1-1.4,1.4-2.2c0.1-0.4,0.5-0.7,0.9-0.7c0.4,0,0.8,0.1,1,0.5l6.9,10.8c0.2,0.3,0.2,0.7,0.1,1c-0.1,0.3-0.4,0.6-0.8,0.6
		c-2.1,0.4-3.3,1.6-3.9,4c-0.1,0.4-0.4,0.7-0.9,0.8C228,188.8,227.9,188.8,227.9,188.8 M222.4,177.2l5.2,8.1c0.8-1.4,1.9-2.4,3.3-3
		l-5.1-7.9c-0.3,0.4-0.6,0.9-1,1.2C224.2,176.3,223.3,176.8,222.4,177.2"/>
	<path class="st1" d="M130.5,121.9c-3.2,0-6.2-0.4-9-1.2c-20.3-5.6-30.7-30.4-31.2-31.5c-0.2-0.5,0-1,0.4-1.3
		c0.7-0.5,16.6-12.2,33.9-12.2c3.2,0,6.2,0.4,9,1.2c20.3,5.6,30.7,30.4,31.2,31.5c0.2,0.5,0,1-0.4,1.3
		C163.7,110.2,147.8,121.9,130.5,121.9 M92.6,89.2c2,4.3,12.1,24.6,29.4,29.4c2.7,0.7,5.5,1.1,8.5,1.1c14.6,0,28.7-9,31.9-11.2
		c-2-4.3-12.1-24.7-29.4-29.4c-2.7-0.7-5.5-1.1-8.5-1.1C109.9,77.9,95.9,86.9,92.6,89.2"/>
	<path class="st1" d="M80.6,157.1c-0.3,0-0.7-0.2-0.9-0.4c-0.7-0.9-16.6-22.6-11-42.9C72.8,99,87.1,89.4,95.3,85
		c0.5-0.3,1.2-0.1,1.4,0.4c0.3,0.5,0.1,1.2-0.4,1.4c-1.7,1-3,1.9-3.7,2.4c1.6,3.5,8.6,17.6,20.5,25.3c0.3,0.2,0.5,0.5,0.5,0.9
		c0.1,3.7-0.2,7.2-1.1,10.5C106.8,146.1,82,156.5,81,157C80.8,157,80.7,157.1,80.6,157.1 M90.7,90.2c-7.6,5-16.9,13.1-19.9,24.1
		c-4.8,17.3,7.5,36.5,10.1,40.4c4.3-2,24.6-12.1,29.4-29.4c0.8-2.9,1.2-6,1.1-9.3C99.4,107.9,92.4,94,90.7,90.2"/>
	<path class="st1" d="M116,155.8c-7.8,0-15.5-2.7-21.6-7.6c-0.3-0.2-0.4-0.5-0.4-0.8c0-0.3,0.2-0.6,0.4-0.8
		c8.4-6.4,13.7-13.6,15.9-21.2c0.8-3,1.2-6.3,1.1-9.8c0-0.4,0.2-0.8,0.5-1c0.3-0.2,0.8-0.2,1.1,0c2.9,1.9,5.9,3.3,9,4.1
		c7.6,2.1,16.6,1.2,26.4-2.7c0.3-0.1,0.6-0.1,0.9,0.1c0.3,0.2,0.5,0.5,0.5,0.8c2,14-4.7,27.6-17,34.5
		C127.7,154.2,121.9,155.8,116,155.8 M96.9,147.3c5.5,4.1,12.3,6.3,19.1,6.3c5.5,0,10.9-1.4,15.8-4.2c11.1-6.3,17.4-18.4,16.1-31
		c-9.7,3.6-18.7,4.4-26.4,2.3c-2.7-0.7-5.3-1.9-7.9-3.4c0,3-0.4,5.8-1.2,8.5C110.3,133.6,105.1,140.8,96.9,147.3"/>
	<path class="st1" d="M148.3,129.8c-0.3,0-0.5-0.1-0.7-0.3c-0.3-0.3-0.4-0.6-0.3-1c0.8-3.8,1-7.6,0.5-11.4c-0.1-0.5,0.2-1,0.7-1.1
		c3.4-1.3,6.8-3,10-4.9c0.3-0.2,0.7-0.2,1,0c0.3,0.2,0.5,0.5,0.6,0.8c0.9,6.7-2.4,13.2-8.3,16.6c-1,0.6-2,1-3.1,1.4
		C148.6,129.7,148.4,129.8,148.3,129.8 M150,117.6c0.4,3.1,0.3,6.3-0.2,9.4c0.3-0.2,0.7-0.3,1-0.5c4.6-2.6,7.4-7.5,7.3-12.8
		C155.4,115.2,152.7,116.5,150,117.6"/>
	<path class="st1" d="M97.9,157.6L97.9,157.6c-4.2,0-8.2-1.5-11.2-4.4c-0.3-0.2-0.4-0.6-0.3-0.9c0-0.3,0.2-0.6,0.5-0.8
		c2.7-1.6,5.3-3.3,7.6-5.1c0.4-0.3,0.9-0.3,1.3,0c3.4,2.8,7.3,4.8,11.6,6c0.4,0.1,0.7,0.4,0.8,0.8c0.1,0.4-0.1,0.8-0.4,1.1
		c-0.6,0.4-1.2,0.8-1.7,1.1C103.6,156.9,100.8,157.6,97.9,157.6 M89.3,152.6c2.5,1.9,5.5,2.9,8.6,2.9c2.3,0,4.7-0.6,6.7-1.7
		c-3.5-1.2-6.6-2.9-9.5-5.1C93.3,150,91.3,151.4,89.3,152.6"/>
	<path class="st1" d="M142.9,96.9c-0.4,0-0.7-0.2-0.9-0.6c-0.5-0.9-11.9-20.7-48.5-6.4c-0.5,0.2-1.2-0.1-1.4-0.6
		c-0.2-0.6,0.1-1.2,0.6-1.4c38.4-15,51,7.2,51.1,7.4c0.3,0.5,0.1,1.2-0.4,1.5C143.3,96.9,143.1,96.9,142.9,96.9"/>
	<path class="st1" d="M122.1,100.6c-0.3,0-0.6-0.1-0.9-0.4c-0.1-0.2-11.6-14.9-28.6-11.3c-0.6,0.1-1.1-0.2-1.3-0.8
		c-0.1-0.6,0.2-1.1,0.8-1.3c18.3-3.9,30.6,12,30.7,12.1c0.4,0.5,0.3,1.1-0.2,1.5C122.6,100.5,122.3,100.6,122.1,100.6"/>
	<path class="st1" d="M81.4,136.6c-0.4,0-0.8-0.3-1-0.7c-0.3-0.8-6.8-19.3,10-47.6c0.3-0.5,1-0.7,1.5-0.4c0.5,0.3,0.7,1,0.4,1.5
		c-16.2,27.4-9.9,45.6-9.8,45.8c0.2,0.6-0.1,1.2-0.6,1.4C81.7,136.5,81.5,136.6,81.4,136.6"/>
	<path class="st1" d="M81.8,175.8c-0.6,0-1-0.4-1.1-1c0-0.2,0-0.4,0-0.6c0-0.6,0.4-1.1,1-1.1c0.6,0,1.1,0.4,1.1,1c0,0.2,0,0.3,0,0.5
		C82.9,175.2,82.5,175.7,81.8,175.8C81.8,175.8,81.8,175.8,81.8,175.8"/>
	<path class="st1" d="M104.5,194.6c-0.6,0-1.1-0.5-1.1-1.1c0-0.6,0.5-1.1,1.1-1.1c0.4,0,0.7,0,1.1,0c0.6-0.1,1.1,0.4,1.1,1
		c0,0.6-0.4,1.1-1,1.1C105.3,194.6,104.9,194.6,104.5,194.6L104.5,194.6z M99,194.1c-0.1,0-0.1,0-0.2,0c-0.2,0-0.4-0.1-0.6-0.1
		l-0.6-0.1c-0.6-0.2-0.9-0.7-0.8-1.3c0.1-0.6,0.7-0.9,1.3-0.8l0.5,0.1c0.2,0,0.3,0.1,0.5,0.1c0.6,0.1,0.9,0.7,0.8,1.3
		C99.9,193.7,99.5,194.1,99,194.1 M111.1,193.5c-0.4,0-0.9-0.3-1-0.7c-0.2-0.6,0.1-1.2,0.7-1.4c0.3-0.1,0.7-0.2,1-0.4
		c0.5-0.2,1.2,0,1.4,0.6c0.2,0.5,0,1.2-0.6,1.4c-0.4,0.1-0.7,0.3-1.1,0.4C111.4,193.5,111.2,193.5,111.1,193.5 M92.7,191.8
		c-0.2,0-0.3,0-0.5-0.1c-0.3-0.2-0.7-0.4-1-0.6c-0.5-0.3-0.7-1-0.4-1.5c0.3-0.5,1-0.7,1.5-0.4c0.3,0.2,0.6,0.4,0.9,0.5
		c0.5,0.3,0.7,0.9,0.4,1.4C93.4,191.6,93,191.8,92.7,191.8 M117,190.3c-0.3,0-0.6-0.1-0.8-0.4c-0.4-0.5-0.3-1.1,0.2-1.5
		c0.3-0.2,0.5-0.4,0.8-0.7c0.4-0.4,1.1-0.4,1.5,0.1c0.4,0.4,0.4,1.1-0.1,1.5c-0.3,0.3-0.6,0.5-0.9,0.8
		C117.5,190.2,117.3,190.3,117,190.3 M87.3,187.8c-0.3,0-0.6-0.1-0.8-0.3c-0.3-0.3-0.5-0.6-0.8-0.9c-0.4-0.4-0.3-1.1,0.1-1.5
		c0.4-0.4,1.1-0.3,1.5,0.1c0.2,0.3,0.5,0.5,0.7,0.8c0.4,0.4,0.4,1.1,0,1.5C87.8,187.7,87.6,187.8,87.3,187.8 M83.5,182.3
		c-0.4,0-0.8-0.2-1-0.6c-0.2-0.4-0.3-0.7-0.5-1.1c-0.2-0.6,0.1-1.2,0.6-1.4c0.6-0.2,1.2,0.1,1.4,0.6c0.1,0.3,0.3,0.7,0.4,1
		c0.2,0.5,0,1.2-0.5,1.4C83.8,182.2,83.6,182.3,83.5,182.3"/>
	<path class="st1" d="M121.5,185.3c-0.2,0-0.4-0.1-0.6-0.2c-0.5-0.3-0.7-1-0.3-1.5c0.1-0.1,0.2-0.3,0.3-0.4c0.3-0.5,1-0.7,1.5-0.4
		c0.5,0.3,0.7,1,0.4,1.5c-0.1,0.2-0.2,0.3-0.3,0.5C122.2,185.1,121.8,185.3,121.5,185.3"/>
	<path class="st1" d="M101.3,230.3c-0.4,0-0.8,0-1.2,0c-0.7,0-1.4-0.1-2.1-0.1l-0.8-0.1c-0.7-0.1-1.5-0.1-2.2-0.2
		c-0.1,0-0.4,0-0.6-0.1l-0.2,0c-1.6-0.3-3.1-0.5-4.4-0.9c-1.4-0.3-2.8-0.7-4.1-1.2l-0.5-0.2c-0.3-0.1-0.5-0.2-0.8-0.3
		c-0.7-0.3-1.5-0.5-2.2-0.8l-0.8-0.3c-0.7-0.3-1.3-0.6-2-0.9c-0.5-0.3-1-0.5-1.6-0.8C60,215,49.3,195.9,50.5,175.9c0,0,0-0.1,0-0.1
		c0-0.8,0.1-1.8,0.3-2.9c0-0.3,0.1-0.6,0.1-0.9c0.2-1.7,0.5-3.4,0.9-5c0.1-0.6,0.7-0.9,1.3-0.8l22.5,5.4c0.5,0.1,0.8,0.5,0.8,1
		c0.7,11.9,9.2,22.2,20.9,25c2.1,0.5,4.2,0.8,6.4,0.8c9.7,0,18.7-5.2,23.6-13.6c0.2-0.4,0.7-0.6,1.2-0.5l22.5,5.4
		c0.3,0.1,0.5,0.2,0.7,0.5c0.1,0.2,0.2,0.5,0.1,0.8c-0.4,1.7-0.9,3.4-1.5,4.9c-0.1,0.3-0.2,0.6-0.3,0.8c-0.3,0.9-0.7,1.9-1.2,2.9
		c-8.2,18.7-26.6,30.8-47,30.8H101.3z M53.7,168.6c-0.3,1.2-0.5,2.5-0.7,3.8c0,0.3-0.1,0.5-0.1,0.8c-0.1,1-0.2,1.9-0.2,2.8
		c0,0,0,0.1,0,0.1c-1.2,19.2,9.1,37.4,26.1,46.4c0.5,0.3,1,0.5,1.5,0.8c0.6,0.3,1.3,0.6,1.9,0.9l0.8,0.3c0.7,0.3,1.4,0.6,2.1,0.8
		c0.3,0.1,0.5,0.2,0.8,0.3l0.4,0.1c1.3,0.4,2.6,0.8,4,1.1c1.3,0.3,2.7,0.6,4.3,0.8l0.2,0c0.1,0,0.3,0,0.4,0c0.8,0.1,1.5,0.2,2.2,0.2
		l0.8,0.1c0.7,0,1.4,0.1,2.1,0.1c0.4,0,0.7,0,1.1,0l0.3,0l0.2,0c19.6,0,37.3-11.6,45.1-29.5c0.4-1,0.8-1.9,1.1-2.8
		c0.1-0.2,0.2-0.5,0.2-0.7c0.4-1.2,0.8-2.5,1.2-3.8l-20.7-4.9c-5.3,8.6-14.8,14-25,14c-2.3,0-4.6-0.3-6.9-0.8
		c-12.3-2.9-21.4-13.6-22.5-26.2L53.7,168.6z"/>
	<path class="st1" d="M135.2,222c1.2-1.2,2.4-2.4,3.5-3.6c1-1.3,2.1-2.6,3.1-3.9c0.9-1.4,1.8-2.8,2.7-4.2c0.8-1.5,1.6-3,2.3-4.5
		c0.6-1.6,1.2-3.1,1.8-4.7l1.3-4.8l0,0c0.1-0.3-0.1-0.6-0.4-0.7l0,0l-0.2-0.1l-0.1,0c-0.3-0.1-0.6,0.1-0.7,0.3l0,0l-1.7,4.2l-2.1,4
		c-0.8,1.3-1.6,2.6-2.4,3.8c-0.9,1.2-1.9,2.4-2.8,3.6l-3.1,3.3l-3.4,3.1l-3.6,2.7c-1.3,0.8-2.6,1.6-3.9,2.4c-1.4,0.7-2.7,1.4-4.1,2
		c-1.4,0.5-2.8,1.1-4.3,1.6c-1.5,0.4-2.9,0.9-4.4,1.2c-1.5,0.3-3,0.6-4.5,0.8c-1.5,0.1-3,0.3-4.6,0.4c-1.5,0-3.1,0.1-4.6,0
		c-1.5-0.2-3-0.3-4.6-0.4l-4.5-0.8l4.3,0.8l0.2,0c0.2,0,0.4,0,0.6,0.1c1,0.1,1.9,0.2,2.9,0.3c0.4,0,0.7,0.1,1.1,0.1c0.4,0,0.7,0,1,0
		c0.5,0,0.9,0,1.4,0c0.7,0,1.4,0,2.1,0c1.5-0.1,3.1-0.2,4.6-0.4c1.5-0.2,3-0.5,4.5-0.8c1.5-0.3,3-0.8,4.4-1.2
		c1.5-0.5,2.9-1.1,4.3-1.6c1.4-0.6,2.8-1.3,4.2-2c1.3-0.8,2.6-1.6,4-2.3l3.7-2.7l3.5-3l3.2-3.3c1-1.2,2-2.4,2.9-3.6
		c0.8-1.3,1.7-2.6,2.6-3.9l0.7-1.4c0.4-0.8,0.7-1.7,1.1-2.6l0.5-1.5l1-3.2l0.2,0.3l0.1,0.2l0.5-0.3l-1.8,4.3l-1.4,2.7
		c-0.3,0.7-0.5,1.3-0.8,2c-0.7,1.4-1.5,2.8-2.3,4.3c-0.8,1.4-1.8,2.7-2.7,4c-1,1.3-2.1,2.5-3.1,3.8c-1.1,1.2-2.3,2.3-3.4,3.4
		c-1.2,1-2.5,2-3.7,3.1l-4,2.7l-4.2,2.3c-1.5,0.6-3,1.3-4.5,1.9c-1.5,0.5-3.1,1-4.6,1.4c-1.6,0.3-3.1,0.7-4.7,1
		c-1.6,0.2-3.2,0.4-4.8,0.5c-1.6,0-3.2,0.1-4.8,0c-1.6-0.2-3.1-0.3-4.7-0.4l-4.9-0.9l-4.6-1.3c-1.5-0.6-3-1.2-4.5-1.8
		c-1.5-0.7-2.9-1.5-4.3-2.2c-1.4-0.8-2.7-1.8-4-2.6c-1.3-1-2.5-2-3.8-3c-1.2-1.1-2.3-2.2-3.5-3.4c-1.1-1.2-2.1-2.5-3.1-3.7l-2.7-4
		l-2.4-4.2c-0.7-1.5-1.3-2.9-2-4.4c-0.5-1.5-1.1-3.1-1.5-4.6c-0.3-1.6-0.8-3.1-1.1-4.7c-0.2-1.6-0.5-3.2-0.6-4.8
		c0-1.6-0.1-3.2-0.1-4.9c0.1-0.7,0.1-1.4,0.2-2.2l-0.1-3l0.3-4.6l0.3,0.4l0.2-0.1l0.3-0.2l-0.5,3l0,0l-0.3,1.7
		c-0.1,0.9-0.1,1.8-0.2,2.7l0,1.6c0.2,1.5,0.4,3.1,0.6,4.6c0.3,1.5,0.6,3,0.9,4.5l1.4,4.4l1.8,4.3l2.1,4.1c0.8,1.3,1.6,2.6,2.5,3.9
		c1,1.2,1.9,2.5,2.8,3.6c1,1.1,2,2.3,3.1,3.4c1.1,1,2.2,2.1,3.4,3.1c1.2,0.9,2.4,1.9,3.7,2.8c1.3,0.8,2.6,1.7,3.9,2.4
		c0.3,0.2,0.7,0.3,1,0.5c0.5,0.3,1,0.5,1.5,0.8c0.5,0.3,1,0.5,1.5,0.7c0.1,0,0.3,0.1,0.4,0.1c0.3,0.1,0.6,0.2,0.8,0.3
		c0.7,0.3,1.4,0.6,2.1,0.8c0.3,0.1,0.6,0.2,0.9,0.3l0.2,0l0.2,0.1l4,1.2l-4.4-1.3c-1.4-0.5-2.9-1.1-4.3-1.7
		c-1.4-0.6-2.7-1.4-4.1-2.1c-1.3-0.8-2.6-1.6-3.9-2.4c-1.3-0.9-2.4-1.8-3.7-2.8c-1.2-1-2.2-2.1-3.4-3.1c-1.1-1.1-2.1-2.2-3.1-3.4
		c-0.9-1.2-1.8-2.4-2.8-3.6c-0.8-1.3-1.6-2.6-2.4-3.9l-2-4.1l-1.6-4.2l-1.2-4.4c-0.3-1.5-0.6-3-0.8-4.5c-0.1-1.5-0.3-3-0.4-4.5
		l0-4.5l0.4-4.5l0,0c0-0.3-0.1-0.5-0.4-0.6l-0.1,0l-0.3-0.1l0,0l0,0c-0.3-0.1-0.6,0.1-0.6,0.4l-1,4.9c-0.2,1.7-0.3,3.3-0.5,5
		c-0.1,1.7,0,3.3,0,5c0.1,1.7,0.3,3.3,0.5,5c0.3,1.6,0.6,3.3,1,4.9c0.4,1.6,1,3.2,1.5,4.8c0.6,1.6,1.3,3.1,1.9,4.7
		c0.8,1.5,1.6,3,2.4,4.4l2.8,4.2c1.1,1.3,2.1,2.6,3.2,3.9c1.2,1.2,2.4,2.4,3.6,3.5c1.3,1.1,2.6,2.2,3.9,3.2c1.4,0.9,2.8,1.9,4.2,2.8
		c1.5,0.8,3,1.6,4.5,2.3c1.6,0.6,3.1,1.3,4.7,1.9l4.9,1.5l4.9,0.9c1.7,0.2,3.4,0.3,5.1,0.4c1.7,0,3.4,0,5-0.1c1.7-0.1,3.3-0.4,5-0.6
		c1.7-0.3,3.3-0.7,4.9-1.1c1.6-0.5,3.2-1,4.8-1.5c1.6-0.6,3.1-1.3,4.6-2l4.4-2.4c1.4-0.9,2.8-1.9,4.1-2.9
		C132.7,224.2,134,223.1,135.2,222 M136.9,215.3l3.2-3.3c1-1.2,2-2.4,2.9-3.6c0.8-1.3,1.7-2.6,2.6-3.9l0.7-1.4
		c0.4-0.8,0.7-1.7,1.1-2.6l0.5-1.5c-8,18.4-26.3,30.2-46.2,30.1c0.7,0,1.4,0,2.1,0c1.5-0.1,3.1-0.2,4.6-0.4c1.5-0.2,3-0.5,4.5-0.8
		c1.5-0.3,3-0.8,4.4-1.2c1.5-0.5,2.9-1.1,4.3-1.6c1.4-0.6,2.8-1.3,4.2-2c1.3-0.8,2.6-1.6,4-2.3l3.7-2.7L136.9,215.3z M99.1,229.2
		c0.4,0,0.7,0,1,0c-0.7,0-1.4-0.1-2.1-0.1C98.4,229.1,98.8,229.2,99.1,229.2"/>
	<path class="st2" d="M76.6,87.7L76.6,87.7c-0.6,0-1.1-0.5-1.1-1.1v-8.3c0-0.6,0.5-1.1,1.1-1.1c0.6,0,1.1,0.5,1.1,1.1l0,8.3
		C77.6,87.2,77.2,87.7,76.6,87.7"/>
	<path class="st2" d="M61.5,121.4H48c-0.6,0-1.1-0.5-1.1-1.1c0-0.6,0.5-1.1,1.1-1.1h13.5c0.6,0,1.1,0.5,1.1,1.1
		C62.6,121,62.1,121.4,61.5,121.4"/>
	<path class="st2" d="M95.2,70.9L95.2,70.9c-0.4,0-0.8,0-1.2-0.1c-0.6-0.1-1-0.6-0.9-1.2c0.1-0.6,0.6-1,1.2-0.9
		c0.3,0,0.6,0.1,0.8,0.1c0.6,0,1.1,0.5,1.1,1.1S95.8,70.9,95.2,70.9 M100,69.3c-0.3,0-0.6-0.1-0.8-0.4c-0.4-0.5-0.3-1.1,0.2-1.5
		c0.2-0.2,0.5-0.4,0.7-0.6c0.4-0.4,1.1-0.4,1.5,0c0.4,0.4,0.4,1.1,0,1.5c-0.3,0.3-0.6,0.5-0.9,0.8C100.5,69.2,100.2,69.3,100,69.3
		 M89.6,68.6c-0.3,0-0.5-0.1-0.8-0.3c-0.3-0.3-0.5-0.6-0.8-0.9c-0.4-0.5-0.3-1.1,0.2-1.5c0.5-0.4,1.1-0.3,1.5,0.2
		c0.2,0.2,0.4,0.5,0.6,0.7c0.4,0.4,0.4,1.1,0,1.5C90.2,68.5,89.9,68.6,89.6,68.6 M103,64c0,0-0.1,0-0.1,0c-0.6-0.1-1-0.6-0.9-1.2
		c0-0.3,0.1-0.6,0.1-0.9c0-0.6,0.5-1.1,1.1-1.1c0.6,0,1.1,0.5,1.1,1.1h-1.1l1.1,0c0,0.4,0,0.8-0.1,1.2C104,63.6,103.5,64,103,64
		 M87.3,63c-0.6,0-1.1-0.4-1.1-1v-0.1c0-0.4,0-0.8,0.1-1.2c0.1-0.6,0.6-1,1.2-0.9c0.6,0.1,1,0.6,0.9,1.2c0,0.3-0.1,0.6-0.1,0.9
		C88.3,62.5,87.9,63,87.3,63L87.3,63z M101.4,58.2c-0.3,0-0.6-0.1-0.8-0.4c-0.2-0.2-0.4-0.5-0.6-0.7c-0.4-0.4-0.4-1.1,0-1.5
		c0.4-0.4,1.1-0.4,1.5,0c0.3,0.3,0.5,0.6,0.8,0.9c0.4,0.5,0.3,1.1-0.2,1.5C101.9,58.1,101.6,58.2,101.4,58.2 M89.6,57.4
		c-0.3,0-0.5-0.1-0.8-0.3c-0.4-0.4-0.4-1.1,0-1.5c0.3-0.3,0.6-0.5,0.9-0.8c0.5-0.4,1.1-0.3,1.5,0.2c0.4,0.5,0.3,1.1-0.2,1.5
		c-0.2,0.2-0.5,0.4-0.7,0.6C90.1,57.3,89.8,57.4,89.6,57.4 M96.2,55.2c0,0-0.1,0-0.1,0c-0.3,0-0.6-0.1-0.9-0.1
		c-0.6,0-1.1-0.5-1.1-1.1c0-0.6,0.5-1.1,1.1-1.1h0c0.4,0,0.8,0,1.1,0.1c0.6,0.1,1,0.6,0.9,1.2C97.2,54.8,96.7,55.2,96.2,55.2"/>
	<path class="st2" d="M72.4,83.5c-0.6,0-1.1-0.5-1.1-1.1c0-0.6,0.5-1.1,1.1-1.1l8.3,0c0.6,0,1.1,0.5,1.1,1.1c0,0.6-0.5,1.1-1.1,1.1
		L72.4,83.5z"/>
	<path class="st2" d="M17.5,153.9c-0.6,0-1.1-0.5-1.1-1.1v-8.3c0-0.6,0.5-1.1,1.1-1.1c0.6,0,1.1,0.5,1.1,1.1v8.3
		C18.6,153.4,18.1,153.9,17.5,153.9"/>
	<path class="st2" d="M21.6,149.7h-8.3c-0.6,0-1.1-0.5-1.1-1.1c0-0.6,0.5-1.1,1.1-1.1h8.3c0.6,0,1.1,0.5,1.1,1.1
		C22.7,149.2,22.2,149.7,21.6,149.7"/>
	<path class="st2" d="M54.8,128.2c-0.6,0-1.1-0.5-1.1-1.1v-13.5c0-0.6,0.5-1.1,1.1-1.1c0.6,0,1.1,0.5,1.1,1.1v13.5
		C55.9,127.7,55.4,128.2,54.8,128.2"/>
	<path class="st2" d="M37.3,194.6c-0.3,0-0.7-0.1-0.9-0.4l-5.5-7.6c-0.4-0.5-0.2-1.1,0.2-1.5c0.5-0.4,1.1-0.2,1.5,0.2l5.5,7.6
		c0.4,0.5,0.2,1.1-0.2,1.5C37.7,194.5,37.5,194.6,37.3,194.6"/>
	<path class="st2" d="M30.8,193.6c-0.3,0-0.7-0.2-0.9-0.4c-0.4-0.5-0.2-1.1,0.2-1.5l7.6-5.5c0.5-0.3,1.1-0.2,1.5,0.2
		c0.4,0.5,0.2,1.1-0.2,1.5l-7.6,5.5C31.2,193.5,31,193.6,30.8,193.6"/>
	<path class="st2" d="M219.5,90.4L219.5,90.4c-0.4,0-0.8-0.3-1-0.7l-2.4-6.4l-6.4-2.4c-0.4-0.2-0.7-0.6-0.7-1c0-0.4,0.3-0.8,0.7-1
		l6.4-2.4l2.4-6.4c0.2-0.4,0.6-0.7,1-0.7c0.4,0,0.8,0.3,1,0.7l2.4,6.4l6.4,2.4c0.4,0.2,0.7,0.6,0.7,1c0,0.4-0.3,0.8-0.7,1l-6.4,2.4
		l-2.4,6.4C220.3,90.2,219.9,90.4,219.5,90.4 M213.2,80l4.1,1.5c0.3,0.1,0.5,0.3,0.6,0.6l1.5,4.1l1.5-4.1c0.1-0.3,0.3-0.5,0.6-0.6
		l4.1-1.5l-4.1-1.5c-0.3-0.1-0.5-0.3-0.6-0.6l-1.5-4.1l-1.5,4.1c-0.1,0.3-0.3,0.5-0.6,0.6L213.2,80z"/>
	<path class="st2" d="M186.3,217.5c-0.3,0-0.5-0.1-0.7-0.3c-0.3-0.3-0.4-0.8-0.2-1.2l2.7-6.2l-2.9-6.1c-0.2-0.4-0.1-0.9,0.2-1.2
		c0.3-0.3,0.8-0.4,1.2-0.2l6.2,2.7l6.1-2.9c0.4-0.2,0.9-0.1,1.2,0.2c0.3,0.3,0.4,0.8,0.2,1.2l-2.7,6.2l2.8,6
		c0.1,0.2,0.2,0.4,0.2,0.6c0,0.6-0.5,1.1-1.1,1.1h0c-0.1,0-0.3,0-0.4-0.1l-6.2-2.7l-6.1,2.9C186.6,217.5,186.5,217.5,186.3,217.5
		 M188.3,205.4l1.9,4c0.1,0.3,0.1,0.6,0,0.9l-1.8,4l4-1.9c0.3-0.1,0.6-0.1,0.9,0l4,1.8l-1.9-4c-0.1-0.3-0.1-0.6,0-0.9l1.8-4l-4,1.9
		c-0.3,0.1-0.6,0.1-0.9,0L188.3,205.4z"/>
	<path class="st2" d="M34.4,155.7c-0.3,0-0.5-0.1-0.7-0.3c-0.3-0.3-0.4-0.8-0.2-1.2l1.8-4.2l-2-4.2c-0.2-0.4-0.1-0.9,0.2-1.2
		c0.3-0.3,0.8-0.4,1.2-0.2l4.2,1.8l4.2-2c0.4-0.2,0.9-0.1,1.2,0.2c0.3,0.3,0.4,0.8,0.2,1.2l-1.8,4.2l1.9,4c0.1,0.2,0.2,0.4,0.2,0.6
		c0,0.6-0.5,1.1-1.1,1.1h0c-0.1,0-0.3,0-0.4-0.1l-4.2-1.8l-4.2,2C34.7,155.6,34.5,155.7,34.4,155.7 M36.4,147.4l1,2
		c0.1,0.3,0.1,0.6,0,0.9l-0.9,2.1l2-1c0.3-0.1,0.6-0.1,0.9,0l2.1,0.9l-1-2c-0.1-0.3-0.1-0.6,0-0.9l0.9-2.1l-2,1
		c-0.3,0.1-0.6,0.1-0.9,0L36.4,147.4z"/>
	<path class="st2" d="M102.6,177.9c-0.3,0-0.5-0.1-0.7-0.3c-0.3-0.3-0.4-0.8-0.2-1.2l1.8-4.2l-2-4.2c-0.2-0.4-0.1-0.9,0.2-1.2
		c0.3-0.3,0.8-0.4,1.2-0.2l4.2,1.8l4.2-2c0.4-0.2,0.9-0.1,1.2,0.2c0.3,0.3,0.4,0.8,0.2,1.2l-1.8,4.2l1.9,4c0.1,0.2,0.2,0.4,0.2,0.6
		c0,0.6-0.5,1.1-1.1,1.1h0c-0.1,0-0.3,0-0.4-0.1l-4.2-1.8l-4.2,2C102.9,177.9,102.7,177.9,102.6,177.9 M104.6,169.7l1,2
		c0.1,0.3,0.1,0.6,0,0.9l-0.9,2.1l2-1c0.3-0.1,0.6-0.1,0.9,0l2.1,0.9l-1-2c-0.1-0.3-0.1-0.6,0-0.9l0.9-2.1l-2,1
		c-0.3,0.1-0.6,0.1-0.9,0L104.6,169.7z"/>
	<path class="st2" d="M110.3,51.8c-0.4,0-0.8-0.3-1-0.7l-3-7.5l-7.6-2.7c-0.4-0.1-0.7-0.5-0.7-1c0-0.4,0.3-0.8,0.7-1l7.5-3l2.7-7.6
		c0.1-0.4,0.5-0.7,1-0.7c0.5,0,0.8,0.3,1,0.7l3,7.5l7.6,2.7c0.4,0.1,0.7,0.5,0.7,1c0,0.4-0.3,0.9-0.7,1l-7.5,3l-2.7,7.6
		C111.2,51.5,110.8,51.8,110.3,51.8L110.3,51.8z M102.2,39.8l5.4,1.9c0.3,0.1,0.5,0.3,0.6,0.6l2.1,5.3l1.9-5.4
		c0.1-0.3,0.3-0.5,0.6-0.6l5.3-2.1l-5.4-1.9c-0.3-0.1-0.5-0.3-0.6-0.6l-2.1-5.3l-1.9,5.4c-0.1,0.3-0.3,0.5-0.6,0.6L102.2,39.8z"/>
	<path class="st2" d="M21.6,175.6c-3.9,0-7-3.1-7-7c0-3.9,3.1-7,7-7c3.8,0,7,3.1,7,7C28.6,172.4,25.5,175.6,21.6,175.6 M21.6,163.8
		c-2.7,0-4.8,2.2-4.8,4.8c0,2.7,2.2,4.8,4.8,4.8c2.7,0,4.8-2.2,4.8-4.8C26.5,165.9,24.3,163.8,21.6,163.8"/>
	<path class="st2" d="M167.3,204.4c-3.9,0-7-3.1-7-7c0-3.9,3.1-7,7-7c3.9,0,7,3.1,7,7C174.3,201.2,171.2,204.4,167.3,204.4
		 M167.3,192.5c-2.7,0-4.8,2.2-4.8,4.8c0,2.7,2.2,4.8,4.8,4.8c2.7,0,4.8-2.2,4.8-4.8C172.2,194.7,170,192.5,167.3,192.5"/>
	<path class="st2" d="M91.3,25.7c-2.5,0-4.6-2-4.6-4.6c0-2.5,2-4.6,4.6-4.6c2.5,0,4.6,2,4.6,4.6C95.8,23.7,93.8,25.7,91.3,25.7
		L91.3,25.7z M91.3,18.8c-1.3,0-2.4,1.1-2.4,2.4c0,1.3,1.1,2.4,2.4,2.4c1.3,0,2.4-1.1,2.4-2.4C93.7,19.9,92.6,18.8,91.3,18.8"/>
	<path class="st2" d="M184.9,108.7c-0.4,0-0.8,0-1.1-0.1c-0.6-0.1-1-0.6-0.9-1.2c0.1-0.6,0.6-1,1.2-0.9c0.3,0,0.6,0.1,0.8,0.1
		c0.6,0,1.1,0.5,1.1,1.1C186,108.2,185.6,108.7,184.9,108.7l0-1.1L184.9,108.7L184.9,108.7z M189.8,107c-0.3,0-0.6-0.1-0.8-0.4
		c-0.4-0.5-0.3-1.1,0.2-1.5c0.2-0.2,0.5-0.4,0.7-0.6c0.4-0.4,1.1-0.4,1.5,0c0.4,0.4,0.4,1.1,0,1.5c-0.3,0.3-0.6,0.5-0.9,0.8
		C190.2,107,190,107,189.8,107 M179.4,106.4c-0.3,0-0.5-0.1-0.8-0.3c-0.3-0.3-0.5-0.6-0.8-0.9c-0.4-0.5-0.3-1.1,0.2-1.5
		c0.5-0.4,1.1-0.3,1.5,0.2c0.2,0.2,0.4,0.5,0.6,0.7c0.4,0.4,0.4,1.1,0,1.5C179.9,106.3,179.7,106.4,179.4,106.4 M192.8,101.8
		c0,0-0.1,0-0.1,0c-0.6-0.1-1-0.6-0.9-1.2c0-0.3,0.1-0.6,0.1-0.9c0-0.6,0.5-1.1,1.1-1.1c0.6,0,1.1,0.5,1.1,1.1v0
		c0,0.4,0,0.8-0.1,1.1C193.8,101.4,193.3,101.8,192.8,101.8 M177,100.8c-0.6,0-1.1-0.4-1.1-1h1.1l-1.1,0c0-0.4,0-0.8,0.1-1.2
		c0.1-0.6,0.6-1,1.2-0.9c0.6,0.1,1,0.6,0.9,1.2c0,0.3-0.1,0.6-0.1,0.9C178.1,100.3,177.6,100.8,177,100.8 M191.2,96
		c-0.3,0-0.6-0.1-0.8-0.4c-0.2-0.2-0.4-0.5-0.6-0.7c-0.4-0.4-0.4-1.1,0-1.5c0.4-0.4,1.1-0.4,1.5,0c0.3,0.3,0.5,0.6,0.8,0.9
		c0.4,0.5,0.3,1.1-0.2,1.5C191.6,95.9,191.4,96,191.2,96 M179.3,95.2c-0.3,0-0.5-0.1-0.8-0.3c-0.4-0.4-0.4-1.1,0-1.5
		c0.3-0.3,0.6-0.5,0.9-0.8c0.5-0.4,1.1-0.3,1.5,0.2c0.4,0.5,0.3,1.1-0.2,1.5c-0.2,0.2-0.5,0.4-0.7,0.6
		C179.9,95.1,179.6,95.2,179.3,95.2 M185.9,93c0,0-0.1,0-0.1,0c-0.3,0-0.6-0.1-0.9-0.1c-0.6,0-1.1-0.5-1.1-1.1
		c0-0.6,0.5-1.1,1.1-1.1h0c0.4,0,0.8,0,1.1,0.1c0.6,0.1,1,0.6,0.9,1.2C186.9,92.6,186.5,93,185.9,93"/>
	<path class="st2" d="M208.2,34.3c-0.3,0-0.5,0-0.7,0c-0.6-0.1-1-0.6-0.9-1.2c0.1-0.6,0.6-1,1.2-0.9c0.1,0,0.3,0,0.4,0
		c0.6,0,1.1,0.5,1.1,1.1S208.8,34.3,208.2,34.3l0-1.1L208.2,34.3L208.2,34.3z M211,33.4c-0.3,0-0.6-0.1-0.8-0.4
		c-0.4-0.5-0.3-1.1,0.2-1.5c0.1-0.1,0.2-0.2,0.3-0.3c0.4-0.4,1.1-0.4,1.5,0c0.4,0.4,0.4,1.1,0,1.5c-0.2,0.2-0.4,0.3-0.6,0.5
		C211.4,33.3,211.2,33.4,211,33.4 M204.9,33c-0.3,0-0.5-0.1-0.8-0.3c-0.2-0.2-0.3-0.4-0.5-0.5c-0.4-0.5-0.3-1.1,0.2-1.5
		c0.5-0.4,1.1-0.3,1.5,0.2c0.1,0.1,0.2,0.2,0.3,0.3c0.4,0.4,0.4,1.1,0,1.5C205.5,32.9,205.2,33,204.9,33 M212.7,30.3
		c0,0-0.1,0-0.1,0c-0.6-0.1-1-0.6-0.9-1.2c0-0.1,0-0.3,0-0.4c0-0.6,0.5-1.1,1.1-1.1c0.6,0,1.1,0.5,1.1,1.1v0c0,0.2,0,0.5,0,0.7
		C213.7,29.9,213.2,30.3,212.7,30.3 M203.6,29.8c-0.6,0-1.1-0.5-1.1-1v-0.1c0-0.2,0-0.5,0-0.7c0.1-0.6,0.6-1,1.2-0.9
		c0.6,0.1,1,0.6,0.9,1.2c0,0.2,0,0.3,0,0.5C204.6,29.2,204.1,29.8,203.6,29.8 M211.8,26.9c-0.3,0-0.6-0.1-0.8-0.4
		c-0.1-0.1-0.2-0.2-0.3-0.3c-0.4-0.4-0.4-1.1,0-1.5c0.4-0.4,1.1-0.4,1.5,0c0.2,0.2,0.3,0.4,0.5,0.6c0.4,0.5,0.3,1.1-0.2,1.5
		C212.2,26.8,212,26.9,211.8,26.9 M204.9,26.5c-0.3,0-0.5-0.1-0.8-0.3c-0.4-0.4-0.4-1.1,0-1.5c0.2-0.2,0.4-0.3,0.6-0.5
		c0.5-0.4,1.1-0.3,1.5,0.2c0.4,0.5,0.3,1.1-0.2,1.5c-0.1,0.1-0.2,0.2-0.3,0.3C205.4,26.4,205.2,26.5,204.9,26.5 M208.7,25.2
		c0,0-0.1,0-0.1,0c-0.2,0-0.3,0-0.5,0c-0.6,0-1.1-0.5-1.1-1.1c0-0.6,0.5-1.1,1.1-1.1h0c0.2,0,0.5,0,0.7,0c0.6,0.1,1,0.6,0.9,1.2
		C209.7,24.8,209.3,25.2,208.7,25.2"/>
	<path class="st2" d="M143,172.9L143,172.9c-0.3,0-0.5,0-0.7,0c-0.6-0.1-1-0.6-0.9-1.2c0.1-0.6,0.6-1,1.2-0.9c0.1,0,0.3,0,0.4,0
		c0.6,0,1.1,0.5,1.1,1.1C144,172.4,143.6,172.9,143,172.9 M145.8,172c-0.3,0-0.6-0.1-0.8-0.4c-0.4-0.5-0.3-1.1,0.2-1.5
		c0.1-0.1,0.2-0.2,0.3-0.3c0.4-0.4,1.1-0.4,1.5,0c0.4,0.4,0.4,1.1,0,1.5c-0.2,0.2-0.4,0.3-0.5,0.5C146.2,171.9,146,172,145.8,172
		 M139.7,171.6c-0.3,0-0.5-0.1-0.7-0.3c-0.2-0.2-0.3-0.4-0.5-0.6c-0.4-0.5-0.3-1.1,0.2-1.5c0.5-0.4,1.1-0.3,1.5,0.2
		c0.1,0.1,0.2,0.2,0.3,0.3c0.4,0.4,0.4,1.1,0,1.5C140.3,171.5,140,171.6,139.7,171.6 M147.5,168.9c0,0-0.1,0-0.1,0
		c-0.6-0.1-1-0.6-0.9-1.2c0-0.1,0-0.3,0-0.4v0c0-0.6,0.5-1.1,1.1-1.1c0.6,0,1.1,0.5,1.1,1.1h-1.1l1.1,0c0,0.3,0,0.5,0,0.7
		C148.5,168.5,148,168.9,147.5,168.9 M138.3,168.4c-0.6,0-1.1-0.5-1.1-1v-0.1c0-0.2,0-0.5,0-0.7c0.1-0.6,0.6-1,1.2-0.9
		c0.6,0.1,1,0.6,0.9,1.2c0,0.1,0,0.3,0,0.5C139.4,167.9,138.9,168.4,138.3,168.4 M146.6,165.5c-0.3,0-0.6-0.1-0.8-0.4
		c-0.1-0.1-0.2-0.2-0.3-0.3c-0.4-0.4-0.4-1.1,0-1.5c0.4-0.4,1.1-0.4,1.5,0c0.2,0.2,0.3,0.4,0.5,0.6c0.4,0.5,0.3,1.1-0.2,1.5
		C147,165.5,146.8,165.5,146.6,165.5 M139.7,165.1c-0.3,0-0.5-0.1-0.8-0.3c-0.4-0.4-0.4-1.1,0-1.5c0.2-0.2,0.4-0.3,0.6-0.5
		c0.5-0.4,1.1-0.3,1.5,0.2c0.4,0.5,0.3,1.1-0.2,1.5c-0.1,0.1-0.2,0.2-0.3,0.3C140.2,165,140,165.1,139.7,165.1 M143.5,163.8
		c0,0-0.1,0-0.1,0c-0.2,0-0.3,0-0.5,0c-0.6,0-1-0.5-1-1.1c0-0.6,0.5-1.1,1.1-1.1c0.2,0,0.5,0,0.7,0c0.6,0.1,1,0.6,0.9,1.2
		C144.5,163.4,144.1,163.8,143.5,163.8"/>
	<path class="st2" d="M154.8,235.7c-0.4,0-0.7,0-1-0.1c-0.6-0.1-1-0.6-0.9-1.2c0.1-0.6,0.6-1,1.2-0.9c0.2,0,0.5,0,0.8,0
		c0.6,0,1.1,0.5,1.1,1.1C155.9,235.2,155.5,235.7,154.8,235.7l0-1.1L154.8,235.7L154.8,235.7z M159.3,234.2c-0.3,0-0.6-0.1-0.8-0.4
		c-0.4-0.5-0.3-1.1,0.2-1.5c0.2-0.2,0.4-0.3,0.6-0.5c0.4-0.4,1.1-0.4,1.5,0c0.4,0.4,0.4,1.1,0,1.5c-0.3,0.3-0.5,0.5-0.8,0.7
		C159.8,234.1,159.5,234.2,159.3,234.2 M149.7,233.6c-0.3,0-0.5-0.1-0.8-0.3c-0.3-0.3-0.5-0.5-0.7-0.8c-0.4-0.5-0.3-1.1,0.2-1.5
		c0.5-0.4,1.1-0.3,1.5,0.2c0.2,0.2,0.3,0.4,0.5,0.6c0.4,0.4,0.4,1.1,0,1.5C150.3,233.5,150,233.6,149.7,233.6 M162.1,229.3
		c0,0-0.1,0-0.1,0c-0.6-0.1-1-0.6-0.9-1.2c0-0.3,0-0.5,0-0.8c0-0.6,0.5-1.1,1.1-1.1c0.6,0,1.1,0.5,1.1,1.1v0c0,0.4,0,0.7-0.1,1
		C163,228.9,162.6,229.3,162.1,229.3 M147.5,228.4c-0.6,0-1.1-0.4-1.1-1v-0.1c0-0.4,0-0.7,0.1-1.1c0.1-0.6,0.6-1,1.2-0.9
		c0.6,0.1,1,0.6,0.9,1.2c0,0.3-0.1,0.5-0.1,0.8C148.6,227.9,148.1,228.4,147.5,228.4 M160.6,223.9c-0.3,0-0.6-0.1-0.8-0.4
		c-0.2-0.2-0.3-0.4-0.5-0.6c-0.4-0.4-0.4-1.1,0-1.5c0.4-0.4,1.1-0.4,1.5,0c0.3,0.3,0.5,0.5,0.7,0.8c0.4,0.5,0.3,1.1-0.2,1.5
		C161,223.9,160.8,223.9,160.6,223.9 M149.7,223.2c-0.3,0-0.5-0.1-0.8-0.3c-0.4-0.4-0.4-1.1,0-1.5c0.3-0.3,0.5-0.5,0.8-0.7
		c0.5-0.4,1.1-0.3,1.5,0.2c0.4,0.5,0.3,1.1-0.2,1.5c-0.2,0.2-0.4,0.3-0.6,0.5C150.2,223.1,149.9,223.2,149.7,223.2 M155.7,221.2
		c0,0-0.1,0-0.1,0c-0.3,0-0.5-0.1-0.8-0.1c-0.6,0-1.1-0.5-1.1-1.1c0-0.6,0.5-1.1,1.1-1.1h0c0.4,0,0.7,0,1.1,0.1
		c0.6,0.1,1,0.6,0.9,1.2C156.7,220.8,156.3,221.2,155.7,221.2"/>
	<path class="st2" d="M164.5,90c-0.3,0-0.5-0.1-0.7-0.3c-0.4-0.4-0.5-1.1,0-1.5l5.7-6c0.4-0.4,1.1-0.5,1.5,0c0.4,0.4,0.5,1.1,0,1.5
		l-5.7,6C165,89.9,164.8,90,164.5,90"/>
	<path class="st2" d="M170.3,89.8c-0.3,0-0.5-0.1-0.7-0.3l-6-5.7c-0.4-0.4-0.5-1.1,0-1.5c0.4-0.4,1.1-0.5,1.5,0l6,5.7
		c0.4,0.4,0.5,1.1,0,1.5C170.9,89.7,170.6,89.8,170.3,89.8"/>
	<path class="st2" d="M216.6,57.2c-0.3,0-0.5-0.1-0.7-0.3c-0.4-0.4-0.5-1.1,0-1.5l5.7-6c0.4-0.4,1.1-0.5,1.5,0
		c0.4,0.4,0.5,1.1,0,1.5l-5.7,6C217.2,57.1,216.9,57.2,216.6,57.2"/>
	<path class="st2" d="M222.5,57c-0.3,0-0.5-0.1-0.7-0.3l-6-5.7c-0.4-0.4-0.5-1.1,0-1.5c0.4-0.4,1.1-0.5,1.5,0l6,5.7
		c0.4,0.4,0.5,1.1,0,1.5C223.1,56.9,222.8,57,222.5,57"/>
	<path class="st2" d="M123.4,23.6c-0.6,0-1.1-0.5-1.1-1l-0.5-15.4c0-0.6,0.4-1.1,1-1.1s1.1,0.4,1.1,1l0.5,15.4
		C124.5,23.1,124.1,23.6,123.4,23.6C123.5,23.6,123.4,23.6,123.4,23.6"/>
	<path class="st2" d="M115.5,16.2c-0.6,0-1.1-0.5-1.1-1c0-0.6,0.4-1.1,1-1.1l15.4-0.5c0.6,0,1.1,0.4,1.1,1c0,0.6-0.4,1.1-1,1.1
		L115.5,16.2C115.5,16.2,115.5,16.2,115.5,16.2"/>
	<path class="st2" d="M232.8,113.3c-0.6,0-1.1-0.5-1.1-1l-0.5-15.4c0-0.6,0.4-1.1,1-1.1c0.6,0,1.1,0.4,1.1,1l0.5,15.4
		C233.9,112.7,233.5,113.2,232.8,113.3L232.8,113.3z"/>
	<path class="st2" d="M224.9,105.8c-0.6,0-1.1-0.5-1.1-1c0-0.6,0.4-1.1,1-1.1l15.4-0.5c0.6,0,1.1,0.4,1.1,1c0,0.6-0.4,1.1-1,1.1
		L224.9,105.8L224.9,105.8z"/>
	<path class="st2" d="M134.2,244.8c-0.6,0-1.1-0.5-1.1-1.1v-8.3c0-0.6,0.5-1.1,1.1-1.1c0.6,0,1.1,0.5,1.1,1.1v8.3
		C135.3,244.3,134.8,244.8,134.2,244.8"/>
	<path class="st2" d="M138.3,240.7h-8.3c-0.6,0-1.1-0.5-1.1-1.1c0-0.6,0.5-1.1,1.1-1.1h8.3c0.6,0,1.1,0.5,1.1,1.1
		C139.4,240.2,138.9,240.7,138.3,240.7"/>
</g>
</svg>
