<?xml version="1.0" encoding="utf-8"?>
<!-- Generator: Adobe Illustrator 24.3.0, SVG Export Plug-In . SVG Version: 6.00 Build 0)  -->
<svg version="1.1" id="Layer_1" xmlns="http://www.w3.org/2000/svg" xmlns:xlink="http://www.w3.org/1999/xlink" x="0px" y="0px"
	 width="222.1px" height="245.3px" viewBox="0 0 222.1 245.3" style="enable-background:new 0 0 222.1 245.3;" xml:space="preserve"
	>
<style type="text/css">
	.st0{fill:#F8E3DF;}
	.st1{fill:#E17863;}
	.st2{fill:#52999D;}
</style>
<g>
	<path class="st0" d="M220.1,92.1c0,22.8-18.5,41.3-41.3,41.3c-22.8,0-41.3-18.5-41.3-41.3c0-22.8,18.5-41.3,41.3-41.3
		C201.6,50.9,220.1,69.3,220.1,92.1"/>
	<path class="st0" d="M182.9,207.7c0,19.5-15.8,35.4-35.4,35.4c-19.5,0-35.4-15.8-35.4-35.4c0-19.5,15.8-35.4,35.4-35.4
		C167.1,172.4,182.9,188.2,182.9,207.7"/>
	<path class="st0" d="M119.9,69.2c0,32.6-26.4,58.9-58.9,58.9S2,101.8,2,69.2c0-32.5,26.4-58.9,58.9-58.9S119.9,36.7,119.9,69.2"/>
	<path class="st1" d="M44.7,55.9H32.9c-1.2,0-2.2-1-2.2-2.2c0-1.2,1-2.2,2.2-2.2h11.8c1.2,0,2.2,1,2.2,2.2
		C46.9,55,45.9,55.9,44.7,55.9"/>
	<path class="st1" d="M38.8,61.8c-1.2,0-2.2-1-2.2-2.2V47.8c0-1.2,1-2.2,2.2-2.2c1.2,0,2.2,1,2.2,2.2v11.8
		C41,60.8,40,61.8,38.8,61.8"/>
	<path class="st1" d="M50.6,190.8H38.8c-1.2,0-2.2-1-2.2-2.2c0-1.2,1-2.2,2.2-2.2h11.8c1.2,0,2.2,1,2.2,2.2
		C52.8,189.8,51.8,190.8,50.6,190.8"/>
	<path class="st1" d="M44.7,196.7c-1.2,0-2.2-1-2.2-2.2v-11.8c0-1.2,1-2.2,2.2-2.2c1.2,0,2.2,1,2.2,2.2v11.8
		C46.9,195.7,45.9,196.7,44.7,196.7"/>
	<path class="st1" d="M196.5,34.3h-11.8c-1.2,0-2.2-1-2.2-2.2c0-1.2,1-2.2,2.2-2.2h11.8c1.2,0,2.2,1,2.2,2.2
		C198.7,33.3,197.7,34.3,196.5,34.3"/>
	<path class="st1" d="M190.6,40.2c-1.2,0-2.2-1-2.2-2.2V26.2c0-1.2,1-2.2,2.2-2.2c1.2,0,2.2,1,2.2,2.2v11.8
		C192.8,39.2,191.8,40.2,190.6,40.2"/>
	<path class="st1" d="M130.7,12.5h-11.8c-1.2,0-2.2-1-2.2-2.2c0-1.2,1-2.2,2.2-2.2h11.8c1.2,0,2.2,1,2.2,2.2
		C132.9,11.5,131.9,12.5,130.7,12.5"/>
	<path class="st1" d="M124.8,18.4c-1.2,0-2.2-1-2.2-2.2V4.4c0-1.2,1-2.2,2.2-2.2c1.2,0,2.2,1,2.2,2.2v11.8
		C127,17.4,126,18.4,124.8,18.4"/>
	<path class="st1" d="M206.8,201.7H195c-1.2,0-2.2-1-2.2-2.2c0-1.2,1-2.2,2.2-2.2h11.8c1.2,0,2.2,1,2.2,2.2
		C209,200.7,208,201.7,206.8,201.7"/>
	<path class="st1" d="M200.9,207.6c-1.2,0-2.2-1-2.2-2.2v-11.8c0-1.2,1-2.2,2.2-2.2c1.2,0,2.2,1,2.2,2.2v11.8
		C203.1,206.6,202.1,207.6,200.9,207.6"/>
	<path class="st2" d="M149.6,85.6c0-0.1-0.1-0.1-0.1-0.2c-0.1-0.2-0.2-0.4-0.4-0.6h0l-24.9-25h0c-0.2-0.2-0.4-0.3-0.6-0.4
		c-0.1,0-0.1-0.1-0.2-0.1c-0.2-0.1-0.4-0.1-0.5-0.1c0,0-0.1-0.1-0.1-0.1H58.9c-1.1,0-2,0.9-2,2v128.1c0,1.1,0.9,2,2,2h88.9
		c1.1,0,2-0.9,2-2V86.2c0-0.1,0-0.1,0-0.1C149.7,85.9,149.7,85.7,149.6,85.6 M142.9,84.2h-18.1V66.1L142.9,84.2z M145.7,187.4H60.9
		V63.3h59.9v22.9c0,1.1,0.9,2,2,2h22.9V187.4z"/>
	<path class="st2" d="M177.9,73l-2.1-1.1v-8.6c0-0.8-0.4-1.5-1.1-1.8l-1.4-0.7c-2.3-1.1-4.9-1.1-7.2,0l-1.4,0.7
		c-0.7,0.3-1.1,1-1.1,1.8V72l-2.5,1.3c-0.7,0.4-1,1.1-1,1.8v61v31.7c0,0.2,0,0.4,0.1,0.6c0,0.1,0,0.1,0,0.1l7.7,21.7
		c0.3,0.8,1,1.3,1.9,1.3c0.9,0,1.6-0.5,1.9-1.3l7.6-21.7c0,0,0,0,0-0.1c0.1-0.2,0.1-0.4,0.1-0.6V136V77.4c3,0.9,5.2,3.6,5.2,6.9
		v35.1c0,1.1,0.9,2,2,2c1.1,0,2-0.9,2-2V84.3C188.6,78.3,183.8,73.4,177.9,73 M164,164.4v-27.2l3.8-2c1.2-0.6,2.6-0.6,3.8,0l3.8,2
		v27.2l-1.9-1c-2.3-1.3-5.2-1.3-7.5,0L164,164.4z M173.5,131.7c-2.3-1.2-5.2-1.2-7.5,0l-1.9,1V76.2l3.8-2c1.2-0.7,2.6-0.7,3.8,0
		l3.8,2v56.4L173.5,131.7z M167.9,64.4c1.1-0.5,2.5-0.5,3.6,0l0.3,0.2v5.5c-1.4-0.4-2.8-0.4-4.2,0v-5.5L167.9,64.4z M169.7,183.4
		l-5.2-14.7l3.3-1.8c1.2-0.7,2.6-0.7,3.8,0l3.3,1.8L169.7,183.4z"/>
	<path class="st2" d="M133.4,108.2H89.8H73.3c-1.1,0-2,1-2,2v11.7v16.8v0.3v16.8c0,1.1,0.9,2,2,2h16.5h43.6c1.1,0,2-0.9,2-2V139
		v-0.3v-16.8v-11.7C135.3,109.2,134.4,108.2,133.4,108.2 M75.3,123.9h12.5v12.8H75.3V123.9z M91.8,123.9h39.6v12.8H91.8V123.9z
		 M131.3,119.9H91.8v-7.7h39.6V119.9z M87.8,119.9H75.3v-7.7h12.5V119.9z M75.3,141h12.5v12.8H75.3V141z M131.3,153.8H91.8V141h39.6
		V153.8z"/>
	<path class="st2" d="M71.3,98.2c0,1.1,0.9,2,2,2h60.1c1.1,0,2-0.9,2-2c0-1.1-0.9-2-2-2H73.3C72.2,96.2,71.3,97.2,71.3,98.2"/>
	<path class="st2" d="M99.5,165.8H73.3c-1.1,0-2,0.9-2,2c0,1.1,0.9,2,2,2h26.3c1.1,0,2-0.9,2-2C101.5,166.7,100.6,165.8,99.5,165.8"
		/>
	<path class="st2" d="M133.4,165.8h-10.3c-1.1,0-2,0.9-2,2c0,1.1,0.9,2,2,2h10.3c1.1,0,2-0.9,2-2
		C135.3,166.7,134.4,165.8,133.4,165.8"/>
	<path class="st2" d="M73.3,88.2h36c1.1,0,2-0.9,2-2c0-1.1-0.9-2-2-2h-36c-1.1,0-2,0.9-2,2C71.3,87.3,72.2,88.2,73.3,88.2"/>
</g>
</svg>
