<?xml version="1.0" encoding="utf-8"?>
<!-- Generator: Adobe Illustrator 24.3.0, SVG Export Plug-In . SVG Version: 6.00 Build 0)  -->
<svg version="1.1" id="Layer_1" xmlns="http://www.w3.org/2000/svg" xmlns:xlink="http://www.w3.org/1999/xlink" x="0px" y="0px"
	 width="229.9px" height="225.3px" viewBox="0 0 229.9 225.3" style="enable-background:new 0 0 229.9 225.3;" xml:space="preserve"
	>
<style type="text/css">
	.st0{fill:#F8E3DF;}
	.st1{fill:#E17863;}
	.st2{fill:none;stroke:#52999D;stroke-width:4;stroke-linecap:round;stroke-linejoin:round;stroke-miterlimit:10;}
</style>
<g>
	<path class="st0" d="M142.3,58.6c0,20.1-16.3,36.4-36.4,36.4c-20.1,0-36.4-16.3-36.4-36.4c0-20.1,16.3-36.4,36.4-36.4
		C126,22.3,142.3,38.6,142.3,58.6"/>
	<path class="st0" d="M220.4,145.3c0,17.2-14,31.2-31.2,31.2c-17.2,0-31.2-14-31.2-31.2c0-17.2,14-31.2,31.2-31.2
		C206.5,114.1,220.4,128.1,220.4,145.3"/>
	<path class="st0" d="M114.9,168.3c0,28.7-23.3,51.9-51.9,51.9C34.3,220.2,11,197,11,168.3c0-28.7,23.3-51.9,51.9-51.9
		C91.6,116.4,114.9,139.6,114.9,168.3"/>
	<path class="st1" d="M214.6,144.1c-1.1,0-1.9-0.9-1.9-1.9c0-4.7-3.8-8.4-8.4-8.4c-1.1,0-1.9-0.9-1.9-1.9c0-1.1,0.9-1.9,1.9-1.9
		c4.7,0,8.4-3.8,8.4-8.4c0-1.1,0.9-1.9,1.9-1.9c1.1,0,1.9,0.9,1.9,1.9c0,4.7,3.8,8.4,8.4,8.4c1.1,0,1.9,0.9,1.9,1.9
		c0,1.1-0.9,1.9-1.9,1.9c-4.7,0-8.4,3.8-8.4,8.4C216.5,143.3,215.6,144.1,214.6,144.1 M210.8,131.8c1.5,1,2.8,2.2,3.7,3.7
		c1-1.5,2.2-2.8,3.7-3.7c-1.5-1-2.8-2.2-3.7-3.7C213.6,129.6,212.3,130.8,210.8,131.8"/>
	<path class="st1" d="M171.5,27.6c-1.1,0-1.9-0.9-1.9-1.9c0-4.7-3.8-8.4-8.4-8.4c-1.1,0-1.9-0.9-1.9-1.9c0-1.1,0.9-1.9,1.9-1.9
		c4.7,0,8.4-3.8,8.4-8.4c0-1.1,0.9-1.9,1.9-1.9c1.1,0,1.9,0.9,1.9,1.9c0,4.7,3.8,8.4,8.4,8.4c1.1,0,1.9,0.9,1.9,1.9
		c0,1.1-0.9,1.9-1.9,1.9c-4.7,0-8.4,3.8-8.4,8.4C173.5,26.8,172.6,27.6,171.5,27.6 M167.8,15.3c1.5,1,2.8,2.2,3.7,3.7
		c1-1.5,2.2-2.8,3.7-3.7c-1.5-1-2.8-2.2-3.7-3.7C170.6,13.1,169.3,14.3,167.8,15.3"/>
	<path class="st1" d="M15.4,153.9c-1.1,0-1.9-0.9-1.9-1.9c0-4.7-3.8-8.4-8.4-8.4c-1.1,0-1.9-0.9-1.9-1.9c0-1.1,0.9-1.9,1.9-1.9
		c4.7,0,8.4-3.8,8.4-8.4c0-1.1,0.9-1.9,1.9-1.9c1.1,0,1.9,0.9,1.9,1.9c0,4.7,3.8,8.4,8.4,8.4c1.1,0,1.9,0.9,1.9,1.9
		c0,1.1-0.9,1.9-1.9,1.9c-4.7,0-8.4,3.8-8.4,8.4C17.3,153,16.4,153.9,15.4,153.9 M11.6,141.5c1.5,1,2.8,2.2,3.7,3.7
		c1-1.5,2.2-2.8,3.7-3.7c-1.5-1-2.8-2.2-3.7-3.7C14.4,139.3,13.1,140.6,11.6,141.5"/>
	<path class="st1" d="M42.3,60.7c-1.1,0-1.9-0.9-1.9-1.9c0-4.7-3.8-8.4-8.4-8.4c-1.1,0-1.9-0.9-1.9-1.9c0-1.1,0.9-1.9,1.9-1.9
		c4.7,0,8.4-3.8,8.4-8.4c0-1.1,0.9-1.9,1.9-1.9c1.1,0,1.9,0.9,1.9,1.9c0,4.7,3.8,8.4,8.4,8.4c1.1,0,1.9,0.9,1.9,1.9
		c0,1.1-0.9,1.9-1.9,1.9c-4.7,0-8.4,3.8-8.4,8.4C44.3,59.8,43.4,60.7,42.3,60.7 M38.6,48.3c1.5,1,2.8,2.2,3.7,3.7
		c1-1.5,2.2-2.8,3.7-3.7c-1.5-1-2.8-2.2-3.7-3.7C41.4,46.1,40.1,47.4,38.6,48.3"/>
	<path class="st2" d="M173.2,95.9c-0.6-0.6-1.1-0.8-1.7-0.8c-0.5,0-1.1,0.3-1.7,0.8c-18,16.4-26.8-2.8-24.9,13.9
		c3,31.6,14.8,44.1,26.5,43.6c11.7,0.5,23.6-12.1,26.5-43.6C200,93.1,191.2,112.3,173.2,95.9z"/>
	<polyline class="st2" points="171.5,95.1 171.5,43.3 80.6,43.3 51.1,71.9 51.1,73.1 51.1,220.3 171.5,220.3 171.5,153.4 	"/>
	<polyline class="st2" points="80.6,43.3 80.6,73.1 51.1,73.1 	"/>
	<line class="st2" x1="145.3" y1="113" x2="69.1" y2="113"/>
	<line class="st2" x1="149.3" y1="131.8" x2="69.1" y2="131.8"/>
	<line class="st2" x1="69.1" y1="150.6" x2="153.5" y2="150.6"/>
	<line class="st2" x1="69.1" y1="169.5" x2="153.5" y2="169.5"/>
	<line class="st2" x1="69.1" y1="188.3" x2="153.5" y2="188.3"/>
	<polygon class="st2" points="127.6,74.8 115.3,74.8 115.3,62.5 107.3,62.5 107.3,74.8 95,74.8 95,82.8 107.3,82.8 107.3,95.1 
		115.3,95.1 115.3,82.8 127.6,82.8 	"/>
</g>
</svg>
