<?xml version="1.0" encoding="utf-8"?>
<!-- Generator: Adobe Illustrator 24.3.0, SVG Export Plug-In . SVG Version: 6.00 Build 0)  -->
<svg version="1.1" id="Layer_1" xmlns="http://www.w3.org/2000/svg" xmlns:xlink="http://www.w3.org/1999/xlink" x="0px" y="0px"
	 width="110.4px" height="88px" viewBox="0 0 110.4 88" style="enable-background:new 0 0 110.4 88;" xml:space="preserve">
<style type="text/css">
	.st0{fill:#F8E3DF;}
	.st1{fill:#E17863;}
	.st2{fill:#52999D;}
</style>
<g>
	<path class="st0" d="M90,38.5c0,12.3-10,22.2-22.2,22.2s-22.2-10-22.2-22.2c0-12.3,10-22.2,22.2-22.2S90,26.2,90,38.5"/>
	<path class="st0" d="M49.9,64.1c0,10.5-8.5,19.1-19.1,19.1c-10.5,0-19.1-8.5-19.1-19.1c0-10.5,8.5-19.1,19.1-19.1
		C41.4,45,49.9,53.5,49.9,64.1"/>
	<path class="st1" d="M10.8,83.1H4.5c-0.7,0-1.2-0.5-1.2-1.2c0-0.7,0.5-1.2,1.2-1.2h6.4c0.7,0,1.2,0.5,1.2,1.2
		C12,82.6,11.5,83.1,10.8,83.1"/>
	<path class="st1" d="M7.7,86.3c-0.7,0-1.2-0.5-1.2-1.2v-6.4c0-0.7,0.5-1.2,1.2-1.2c0.7,0,1.2,0.5,1.2,1.2v6.4
		C8.9,85.8,8.3,86.3,7.7,86.3"/>
	<path class="st1" d="M77.3,7.3h-6.4c-0.7,0-1.2-0.5-1.2-1.2c0-0.7,0.5-1.2,1.2-1.2h6.4c0.7,0,1.2,0.5,1.2,1.2
		C78.5,6.7,77.9,7.3,77.3,7.3"/>
	<path class="st1" d="M74.1,10.5c-0.7,0-1.2-0.5-1.2-1.2V2.9c0-0.7,0.5-1.2,1.2-1.2c0.7,0,1.2,0.5,1.2,1.2v6.4
		C75.3,9.9,74.7,10.5,74.1,10.5"/>
	<path class="st1" d="M108.2,49.2h-6.4c-0.7,0-1.2-0.5-1.2-1.2c0-0.7,0.5-1.2,1.2-1.2h6.4c0.7,0,1.2,0.5,1.2,1.2
		C109.4,48.6,108.9,49.2,108.2,49.2"/>
	<path class="st1" d="M105,52.3c-0.7,0-1.2-0.5-1.2-1.2v-6.4c0-0.7,0.5-1.2,1.2-1.2c0.7,0,1.2,0.5,1.2,1.2v6.4
		C106.2,51.8,105.7,52.3,105,52.3"/>
	<path class="st1" d="M16.1,22.5H9.8c-0.7,0-1.2-0.5-1.2-1.2c0-0.7,0.5-1.2,1.2-1.2h6.4c0.7,0,1.2,0.5,1.2,1.2
		C17.3,22,16.8,22.5,16.1,22.5"/>
	<path class="st1" d="M13,25.7c-0.7,0-1.2-0.5-1.2-1.2v-6.4c0-0.7,0.5-1.2,1.2-1.2c0.7,0,1.2,0.5,1.2,1.2v6.4
		C14.1,25.1,13.6,25.7,13,25.7"/>
	<path class="st2" d="M63.1,22.8c-0.3,0.9-0.6,1.9-1,2.8c-0.3,0.7-0.9,1.3-1.4,1.9c-15,15-30,30-45,45c-1.2,1.2-2.7,2-4.4,2.3
		c-0.1,0-0.1,0.1-0.2,0.1H9.3c-0.5-0.1-1-0.2-1.5-0.4C2.5,72.6,1,66,5,61.9c6-6.1,12.1-12.1,18.2-18.2c8.9-8.9,17.9-17.9,26.8-26.8
		c1.6-1.6,3.5-2.5,5.8-2.5c3.6,0.1,6.6,2.7,7.2,6.3c0,0.1,0.1,0.2,0.1,0.3V22.8z M17.7,67.5c0.1,0,0.1,0.1,0.2,0.1
		c0.1-0.2,0.2-0.4,0.4-0.5c13.6-13.6,27.2-27.2,40.8-40.9c0.3-0.3,0.6-0.7,0.9-1.1c2.2-2.9,0.8-7.4-2.6-8.5
		c-2.4-0.7-4.4-0.2-6.1,1.6C37.7,32,24,45.6,10.4,59.3c-0.1,0.1-0.3,0.3-0.5,0.5c2.3,0,4.1,0.7,5.6,2.2C17,63.5,17.8,65.4,17.7,67.5
		 M15.8,67.3c0-3.1-2.6-5.6-5.6-5.6c-3,0-5.5,2.5-5.6,5.6c0,3,2.5,5.6,5.6,5.6C13.3,72.9,15.8,70.4,15.8,67.3"/>
	<path class="st2" d="M51.9,29.2c-0.5,0-1-0.5-1-1c0-0.5,0.5-1,1-1c0.6,0,1,0.5,1,1C53,28.8,52.5,29.2,51.9,29.2"/>
	<path class="st2" d="M53.8,22.2c0.6,0,1,0.5,1,1c0,0.5-0.5,1-1,1c-0.5,0-1-0.5-1-1C52.8,22.6,53.2,22.2,53.8,22.2"/>
	<path class="st2" d="M14.5,67.3c0,2.3-1.9,4.3-4.3,4.3c-2.3,0-4.3-2-4.3-4.3c0-2.4,2-4.3,4.3-4.3C12.6,63.1,14.5,65,14.5,67.3
		 M10.3,69.7c1.3,0,2.4-1.1,2.3-2.4c0-1.3-1.1-2.4-2.4-2.4c-1.3,0-2.4,1.1-2.4,2.4C7.9,68.7,8.9,69.7,10.3,69.7"/>
	<path class="st2" d="M91.3,29.5c-0.3,0.9-0.6,1.9-1,2.8c-0.3,0.7-0.9,1.3-1.4,1.9c-15,15-30,30-45,45c-1.2,1.2-2.7,2-4.4,2.3
		c-0.1,0-0.1,0.1-0.2,0.1h-1.8c-0.5-0.1-1-0.2-1.5-0.4c-5.3-1.9-6.8-8.5-2.8-12.5c6-6.1,12.1-12.1,18.2-18.2
		c8.9-8.9,17.9-17.9,26.8-26.8c1.6-1.6,3.5-2.5,5.8-2.5c3.6,0.1,6.6,2.7,7.2,6.3c0,0.1,0.1,0.2,0.1,0.3V29.5z M46,74.2
		c0.1,0,0.1,0.1,0.2,0.1c0.1-0.2,0.2-0.4,0.4-0.5c13.6-13.6,27.2-27.2,40.8-40.9c0.3-0.3,0.6-0.7,0.9-1.1c2.2-2.9,0.8-7.4-2.6-8.5
		c-2.4-0.8-4.4-0.2-6.1,1.6c-13.7,13.7-27.3,27.3-41,41c-0.1,0.1-0.3,0.3-0.5,0.5c2.3,0,4.1,0.7,5.6,2.2C45.3,70.2,46,72,46,74.2
		 M44,74c0-3.1-2.6-5.6-5.6-5.6c-3,0-5.5,2.5-5.6,5.6c0,3,2.5,5.6,5.6,5.6C41.5,79.6,44.1,77,44,74"/>
	<path class="st2" d="M80.2,35.9c-0.5,0-1-0.5-1-1c0-0.5,0.5-1,1-1c0.6,0,1,0.5,1,1C81.2,35.4,80.7,35.9,80.2,35.9"/>
	<path class="st2" d="M82,28.8c0.6,0,1,0.5,1,1c0,0.5-0.5,1-1,1c-0.5,0-1-0.5-1-1C81,29.3,81.5,28.8,82,28.8"/>
	<path class="st2" d="M42.8,74c0,2.3-1.9,4.3-4.3,4.3c-2.3,0-4.3-2-4.3-4.3c0-2.4,2-4.3,4.3-4.3C40.9,69.7,42.8,71.6,42.8,74
		 M38.5,76.3c1.3,0,2.4-1.1,2.3-2.4c0-1.3-1.1-2.4-2.4-2.4c-1.3,0-2.4,1.1-2.4,2.4C36.1,75.3,37.2,76.3,38.5,76.3"/>
</g>
</svg>
