<?xml version="1.0" encoding="utf-8"?>
<!-- Generator: Adobe Illustrator 24.3.0, SVG Export Plug-In . SVG Version: 6.00 Build 0)  -->
<svg version="1.1" id="Layer_1" xmlns="http://www.w3.org/2000/svg" xmlns:xlink="http://www.w3.org/1999/xlink" x="0px" y="0px"
	 width="203.6px" height="207.5px" viewBox="0 0 203.6 207.5" style="enable-background:new 0 0 203.6 207.5;" xml:space="preserve"
	>
<style type="text/css">
	.st0{fill:#F8E3DF;}
	.st1{fill:#FFFFFF;}
	.st2{fill:#E17863;}
	.st3{fill:none;stroke:#52999D;stroke-width:4;stroke-linecap:round;stroke-linejoin:round;stroke-miterlimit:10;}
</style>
<g>
	<path class="st0" d="M194.2,86.5c0,20.2-16.4,36.5-36.5,36.5c-20.2,0-36.5-16.4-36.5-36.5c0-20.2,16.4-36.5,36.5-36.5
		C177.8,49.9,194.2,66.3,194.2,86.5"/>
	<path class="st0" d="M85.6,166.4c0,17.3-14,31.3-31.3,31.3c-17.3,0-31.3-14-31.3-31.3c0-17.3,14-31.3,31.3-31.3
		C71.6,135.1,85.6,149.1,85.6,166.4"/>
	<path class="st0" d="M113.8,58.4c0,28.8-23.4,52.2-52.2,52.2c-28.8,0-52.2-23.4-52.2-52.2c0-28.8,23.4-52.2,52.2-52.2
		C90.4,6.3,113.8,29.6,113.8,58.4"/>
	<path class="st1" d="M158.7,148.8c0,2.9-2.3,5.2-5.2,5.2s-5.2-2.3-5.2-5.2c0-2.9,2.3-5.2,5.2-5.2S158.7,145.9,158.7,148.8"/>
	<path class="st1" d="M179.5,164.5c0,2.9-2.3,5.2-5.2,5.2s-5.2-2.3-5.2-5.2c0-2.9,2.3-5.2,5.2-5.2S179.5,161.6,179.5,164.5"/>
	<path class="st2" d="M177.6,36.6c-4,0-7.2-3.2-7.2-7.2c0-4,3.2-7.2,7.2-7.2c4,0,7.2,3.2,7.2,7.2C184.8,33.4,181.5,36.6,177.6,36.6
		 M177.6,26.2c-1.8,0-3.3,1.5-3.3,3.3s1.5,3.3,3.3,3.3c1.8,0,3.3-1.5,3.3-3.3S179.4,26.2,177.6,26.2"/>
	<path class="st2" d="M194.2,176.9c-4,0-7.2-3.2-7.2-7.2c0-4,3.2-7.2,7.2-7.2c4,0,7.2,3.2,7.2,7.2
		C201.4,173.7,198.2,176.9,194.2,176.9 M194.2,166.4c-1.8,0-3.3,1.5-3.3,3.3s1.5,3.3,3.3,3.3c1.8,0,3.3-1.5,3.3-3.3
		S196,166.4,194.2,166.4"/>
	<path class="st2" d="M51.7,33.4c-4,0-7.2-3.2-7.2-7.2c0-4,3.2-7.2,7.2-7.2c4,0,7.2,3.2,7.2,7.2C58.9,30.1,55.6,33.4,51.7,33.4
		 M51.7,22.9c-1.8,0-3.3,1.5-3.3,3.3s1.5,3.3,3.3,3.3c1.8,0,3.3-1.5,3.3-3.3S53.5,22.9,51.7,22.9"/>
	<path class="st2" d="M30.8,62.1c-4,0-7.2-3.2-7.2-7.2c0-4,3.2-7.2,7.2-7.2c4,0,7.2,3.2,7.2,7.2C38,58.8,34.8,62.1,30.8,62.1
		 M30.8,51.6c-1.8,0-3.3,1.5-3.3,3.3s1.5,3.3,3.3,3.3c1.8,0,3.3-1.5,3.3-3.3S32.6,51.6,30.8,51.6"/>
	<path class="st2" d="M9.4,156.1c-4,0-7.2-3.2-7.2-7.2c0-4,3.2-7.2,7.2-7.2c4,0,7.2,3.2,7.2,7.2C16.6,152.9,13.4,156.1,9.4,156.1
		 M9.4,145.6c-1.8,0-3.3,1.5-3.3,3.3s1.5,3.3,3.3,3.3c1.8,0,3.3-1.5,3.3-3.3S11.2,145.6,9.4,145.6"/>
	<path class="st3" d="M157.5,203.2H64.7c-8.9,0-16.2-7.2-16.2-16.2V84.4c0-19.7,16-35.7,35.7-35.7H138c19.7,0,35.7,16,35.7,35.7V187
		C173.7,196,166.4,203.2,157.5,203.2z"/>
	<path class="st3" d="M165.7,170.8c4.1-6.9,1.9-15.9-5-20c-6.9-4.1-15.9-1.9-20,5l-5.2,8.6l25,15L165.7,170.8z"/>
	<path class="st3" d="M135.3,193L135.3,193c6.9,4.1,15.9,1.9,20-5l5.2-8.6l-25-15l-5.2,8.6C126.2,179.9,128.4,188.8,135.3,193z"/>
	<path class="st3" d="M105.5,198.4c8.1,0.1,14.6-6.4,14.7-14.5c0.1-8.1-6.4-14.6-14.5-14.7l-10-0.1l-0.2,29.2L105.5,198.4z"/>
	<path class="st3" d="M70.9,183.5L70.9,183.5c-0.1,8.1,6.4,14.6,14.5,14.7l10,0.1l0.2-29.2l-10-0.1C77.5,169,70.9,175.4,70.9,183.5z
		"/>
	<path class="st3" d="M55.9,139.5c-4.1-6.9-1.9-15.9,5-20c6.9-4.1,15.9-1.9,20,5l5.2,8.6l-25,15L55.9,139.5z"/>
	<path class="st3" d="M86.2,161.8L86.2,161.8c-6.9,4.1-15.9,1.9-20-5l-5.2-8.6l25-15l5.2,8.6C95.4,148.6,93.1,157.6,86.2,161.8z"/>
	<path class="st3" d="M134.3,48.1h-44c-6.1,0-11.1-5-11.1-11.1V15.4c0-6.1,5-11.1,11.1-11.1h44c6.1,0,11.1,5,11.1,11.1V37
		C145.4,43.1,140.4,48.1,134.3,48.1z"/>
	<line class="st3" x1="79.2" y1="37" x2="145.4" y2="37"/>
	<path class="st3" d="M133.4,126.6c0-8.1-6.5-14.6-14.6-14.6s-14.6,6.5-14.6,14.6v10h29.2V126.6z"/>
	<path class="st3" d="M118.8,161.2L118.8,161.2c8.1,0,14.6-6.5,14.6-14.6v-10h-29.2v10C104.2,154.7,110.8,161.2,118.8,161.2z"/>
</g>
</svg>
