<?xml version="1.0" encoding="utf-8"?>
<!-- Generator: Adobe Illustrator 24.3.0, SVG Export Plug-In . SVG Version: 6.00 Build 0)  -->
<svg version="1.1" id="Layer_1" xmlns="http://www.w3.org/2000/svg" xmlns:xlink="http://www.w3.org/1999/xlink" x="0px" y="0px"
	 width="110.4px" height="88px" viewBox="0 0 110.4 88" style="enable-background:new 0 0 110.4 88;" xml:space="preserve">
<style type="text/css">
	.st0{fill:#F8E3DF;}
	.st1{fill:#E17863;}
	.st2{fill:#52999D;}
</style>
<path class="st0" d="M100.3,37.9c0,12.3-10,22.2-22.2,22.2c-12.3,0-22.2-10-22.2-22.2c0-12.3,10-22.2,22.2-22.2
	C90.3,15.6,100.3,25.6,100.3,37.9"/>
<path class="st0" d="M60.2,63.5c0,10.5-8.5,19.1-19.1,19.1c-10.5,0-19.1-8.5-19.1-19.1c0-10.5,8.5-19.1,19.1-19.1
	C51.7,44.4,60.2,53,60.2,63.5"/>
<path class="st1" d="M17.7,71.3h-6.4c-0.7,0-1.2-0.5-1.2-1.2c0-0.7,0.5-1.2,1.2-1.2h6.4c0.7,0,1.2,0.5,1.2,1.2
	C18.9,70.8,18.3,71.3,17.7,71.3"/>
<path class="st1" d="M14.5,74.5c-0.7,0-1.2-0.5-1.2-1.2V67c0-0.7,0.5-1.2,1.2-1.2c0.7,0,1.2,0.5,1.2,1.2v6.4
	C15.7,74,15.2,74.5,14.5,74.5"/>
<path class="st1" d="M87.6,6.7h-6.4c-0.7,0-1.2-0.5-1.2-1.2c0-0.7,0.5-1.2,1.2-1.2h6.4c0.7,0,1.2,0.5,1.2,1.2
	C88.8,6.1,88.2,6.7,87.6,6.7"/>
<path class="st1" d="M84.4,9.9c-0.7,0-1.2-0.5-1.2-1.2V2.3c0-0.7,0.5-1.2,1.2-1.2c0.7,0,1.2,0.5,1.2,1.2v6.4
	C85.6,9.3,85.1,9.9,84.4,9.9"/>
<path class="st1" d="M44.3,13.3H38c-0.7,0-1.2-0.5-1.2-1.2c0-0.7,0.5-1.2,1.2-1.2h6.4c0.7,0,1.2,0.5,1.2,1.2
	C45.5,12.8,45,13.3,44.3,13.3"/>
<path class="st1" d="M41.2,16.5c-0.7,0-1.2-0.5-1.2-1.2V9c0-0.7,0.5-1.2,1.2-1.2c0.7,0,1.2,0.5,1.2,1.2v6.4
	C42.4,16,41.8,16.5,41.2,16.5"/>
<path class="st1" d="M83,83.7h-6.4c-0.7,0-1.2-0.5-1.2-1.2c0-0.7,0.5-1.2,1.2-1.2H83c0.7,0,1.2,0.5,1.2,1.2
	C84.2,83.2,83.7,83.7,83,83.7"/>
<path class="st1" d="M79.9,86.9c-0.7,0-1.2-0.5-1.2-1.2v-6.4c0-0.7,0.5-1.2,1.2-1.2c0.7,0,1.2,0.5,1.2,1.2v6.4
	C81,86.4,80.5,86.9,79.9,86.9"/>
<path class="st2" d="M94.8,17.5c-0.5,0.6-0.9,1.3-1.5,1.9c-1.7,1.6-3.5,3.2-5.3,4.8c-0.3,0.3-0.3,0.5-0.2,0.8
	c2.2,5.8,1.3,11.1-3,15.5c-3.4,3.5-5.5,7.7-6.9,12.4c-1,3.4-2.1,6.7-4.1,9.7C68.6,70.2,61.4,75.1,52.2,77c-1.2,0.2-2.4,0.4-3.5,0.5
	h-3.5c-2.5-0.4-4.9-0.7-7.4-1.1c-0.8-0.1-1.6-0.1-2.4-0.1c-3.3-0.2-6.1-2.9-6.4-6.1c-0.2-2.8-0.4-5.6-0.9-8.4
	c-0.8-4.6-0.1-9.2,1.5-13.6c2.8-7.6,7.6-13.6,14.6-17.7c2.7-1.6,5.7-2.6,8.7-3.4c4.7-1.3,8.8-3.5,12.2-7c0.8-0.8,1.8-1.5,2.8-2
	c4-2.2,8.1-2.4,12.3-0.7c0.5,0.2,0.7,0.2,1.1-0.2c1.6-1.9,3.3-3.7,5-5.6c1.2-1.4,2.8-1.4,4.1-0.1c1.1,1.1,2.3,2.2,3.4,3.4
	c0.4,0.4,0.6,1,1,1.4V17.5z M30.4,58.2c0,0.6,0,1.1,0.1,1.7c0.2,1.6,0.6,3.2,0.8,4.8c0.2,1.7,0.2,3.4,0.3,5.1c0.1,2.1,1.9,3.8,4,4
	c0.6,0,1.3,0,1.9,0.1c1.5,0.1,3,0.2,4.4,0.5c3.2,0.7,6.5,0.9,9.7,0.1c11.8-2.7,20-9.4,23.7-21.3c0.7-2.2,1.4-4.4,2.3-6.6
	c1.3-3.1,3.3-5.7,5.6-8c2.8-3,3.9-6.5,3-10.5c-1-4.3-3.6-7.2-7.8-8.5c-4.3-1.3-8.1-0.3-11.5,2.7c-1.6,1.4-3.2,2.8-5,4
	C59.1,28,56,29,52.9,29.9C46.5,31.6,41.1,35,37,40.2C32.9,45.5,30.6,51.5,30.4,58.2 M92,16.9c-1.2-1.3-2.5-2.5-3.7-3.7
	c-1.7,1.9-3.4,3.8-5,5.6c1.1,1.1,2.1,2.1,3.1,3.1C88.2,20.4,90.1,18.6,92,16.9"/>
<path class="st2" d="M35.6,58.6c0.1-5.1,1.6-9.3,4.1-13.1c3.5-5.4,8.4-9,14.6-10.6c0.8-0.2,1.5,0.1,1.7,0.8c0.2,0.7-0.1,1.4-0.9,1.7
	c-1.8,0.7-3.6,1.2-5.3,2c-4.3,2.2-7.3,5.7-9.4,10c-1.5,3-2.4,6.1-2.2,9.4c0.1,1.5,0.3,3,1,4.3c1.2,2.4,3.3,3.4,5.9,3.7
	c4.4,0.5,8.4-0.7,12.1-2.8c5.3-3,8.8-7.4,10.5-13.4c0.8-2.7,1.8-5.4,2.9-8c1.5-3.6,3.8-6.6,6.6-9.4c1.1-1.1,1.6-2.4,1.1-3.9
	c-0.8-2.6-3.9-3.5-6-1.7c-1.4,1.3-2.9,2.5-4.4,3.8c-0.5,0.4-1.1,0.8-1.6,1.1c-0.7,0.4-1.4,0.2-1.8-0.4c-0.4-0.6-0.2-1.3,0.4-1.8
	c1.9-1.5,3.8-3,5.6-4.6c2.6-2.2,6.3-2.2,8.7,0.2c2.4,2.4,2.6,6.3,0.2,8.7c-4.7,4.6-7.4,10.2-9.2,16.5c-0.9,3.1-2.1,6.1-4.1,8.7
	c-4.3,5.3-9.8,8.6-16.5,9.7c-2.1,0.3-4.3,0.3-6.4-0.3c-4.2-1-6.6-3.8-7.4-8C35.7,60.3,35.6,59.2,35.6,58.6"/>
<path class="st2" d="M60.3,35.5c-0.7,0-1.3-0.6-1.3-1.3c0-0.7,0.6-1.3,1.3-1.3c0.7,0,1.3,0.6,1.3,1.3C61.7,35,61.1,35.5,60.3,35.5"
	/>
<path class="st2" d="M70.4,36c-0.7,0-1.3-0.6-1.3-1.3c0-0.7,0.6-1.3,1.3-1.3c0.7,0,1.3,0.6,1.3,1.3C71.7,35.5,71.1,36.1,70.4,36"/>
<path class="st2" d="M49.8,46.7c0.7,0,1.3,0.6,1.3,1.4c0,0.7-0.6,1.3-1.3,1.3c-0.7,0-1.3-0.6-1.3-1.3C48.5,47.2,49.1,46.6,49.8,46.7
	"/>
<path class="st2" d="M66.7,42.8c0,0.7-0.6,1.3-1.3,1.3c-0.7,0-1.3-0.6-1.3-1.3c0-0.7,0.6-1.3,1.3-1.3C66.1,41.5,66.7,42.1,66.7,42.8
	"/>
<path class="st2" d="M54,56.9c0.7,0,1.3,0.5,1.3,1.3c0,0.7-0.6,1.3-1.3,1.3c-0.7,0-1.3-0.6-1.3-1.3C52.7,57.5,53.3,57,54,56.9"/>
<path class="st2" d="M60.2,53.4c-0.7,0-1.3-0.6-1.3-1.3c0-0.7,0.6-1.3,1.3-1.3c0.7,0,1.3,0.6,1.3,1.3C61.5,52.8,60.9,53.4,60.2,53.4
	"/>
<path class="st2" d="M58.2,43.5c0,0.7-0.6,1.3-1.3,1.3c-0.7,0-1.3-0.6-1.3-1.3c0-0.7,0.6-1.3,1.3-1.3C57.6,42.2,58.2,42.8,58.2,43.5
	"/>
<path class="st2" d="M47.6,56.2c0,0.7-0.6,1.3-1.3,1.3c-0.7,0-1.3-0.6-1.3-1.3c0-0.7,0.6-1.3,1.3-1.3C47,54.9,47.6,55.4,47.6,56.2"
	/>
</svg>
