<?xml version="1.0" encoding="utf-8"?>
<!-- Generator: Adobe Illustrator 24.3.0, SVG Export Plug-In . SVG Version: 6.00 Build 0)  -->
<svg version="1.1" id="Layer_1" xmlns="http://www.w3.org/2000/svg" xmlns:xlink="http://www.w3.org/1999/xlink" x="0px" y="0px"
	 width="223.9px" height="217.3px" viewBox="0 0 223.9 217.3" style="enable-background:new 0 0 223.9 217.3;" xml:space="preserve"
	>
<style type="text/css">
	.st0{fill:#F8E3DF;}
	.st1{fill:#E17863;}
	.st2{fill:#52999D;}
	.st3{fill:#FFFFFF;}
</style>
<g>
	<path class="st0" d="M139.2,55.7c0,20.1-16.3,36.4-36.4,36.4c-20.1,0-36.4-16.3-36.4-36.4c0-20.1,16.3-36.4,36.4-36.4
		C122.9,19.3,139.2,35.6,139.2,55.7"/>
	<path class="st0" d="M217.4,142.3c0,17.2-14,31.2-31.2,31.2c-17.2,0-31.2-14-31.2-31.2c0-17.2,14-31.2,31.2-31.2
		C203.4,111.1,217.4,125.1,217.4,142.3"/>
	<path class="st0" d="M111.9,165.3c0,28.7-23.3,51.9-51.9,51.9C31.2,217.3,8,194,8,165.3c0-28.7,23.3-51.9,51.9-51.9
		C88.6,113.4,111.9,136.6,111.9,165.3"/>
	<path class="st1" d="M211.5,141.2c-1.1,0-1.9-0.9-1.9-1.9c0-4.7-3.8-8.4-8.4-8.4c-1.1,0-1.9-0.9-1.9-1.9c0-1.1,0.9-1.9,1.9-1.9
		c4.7,0,8.4-3.8,8.4-8.4c0-1.1,0.9-1.9,1.9-1.9c1.1,0,1.9,0.9,1.9,1.9c0,4.7,3.8,8.4,8.4,8.4c1.1,0,1.9,0.9,1.9,1.9
		c0,1.1-0.9,1.9-1.9,1.9c-4.7,0-8.4,3.8-8.4,8.4C213.5,140.3,212.6,141.2,211.5,141.2 M207.8,128.8c1.5,1,2.8,2.2,3.7,3.7
		c1-1.5,2.2-2.8,3.7-3.7c-1.5-1-2.8-2.2-3.7-3.7C210.6,126.6,209.3,127.9,207.8,128.8"/>
	<path class="st1" d="M168.5,24.7c-1.1,0-1.9-0.9-1.9-1.9c0-4.7-3.8-8.4-8.4-8.4c-1.1,0-1.9-0.9-1.9-1.9c0-1.1,0.9-1.9,1.9-1.9
		c4.7,0,8.4-3.8,8.4-8.4c0-1.1,0.9-1.9,1.9-1.9c1.1,0,1.9,0.9,1.9,1.9c0,4.7,3.8,8.4,8.4,8.4c1.1,0,1.9,0.9,1.9,1.9
		c0,1.1-0.9,1.9-1.9,1.9c-4.7,0-8.4,3.8-8.4,8.4C170.5,23.8,169.6,24.7,168.5,24.7 M164.8,12.3c1.5,1,2.8,2.2,3.7,3.7
		c1-1.5,2.2-2.8,3.7-3.7c-1.5-1-2.8-2.2-3.7-3.7C167.6,10.1,166.3,11.4,164.8,12.3"/>
	<path class="st1" d="M12.3,150.9c-1.1,0-1.9-0.9-1.9-1.9c0-4.7-3.8-8.4-8.4-8.4c-1.1,0-1.9-0.9-1.9-1.9c0-1.1,0.9-1.9,1.9-1.9
		c4.7,0,8.4-3.8,8.4-8.4c0-1.1,0.9-1.9,1.9-1.9c1.1,0,1.9,0.9,1.9,1.9c0,4.7,3.8,8.4,8.4,8.4c1.1,0,1.9,0.9,1.9,1.9
		c0,1.1-0.9,1.9-1.9,1.9c-4.7,0-8.4,3.8-8.4,8.4C14.3,150,13.4,150.9,12.3,150.9 M8.6,138.6c1.5,1,2.8,2.2,3.7,3.7
		c1-1.5,2.2-2.8,3.7-3.7c-1.5-1-2.8-2.2-3.7-3.7C11.4,136.3,10.1,137.6,8.6,138.6"/>
	<path class="st1" d="M39.3,57.7c-1.1,0-1.9-0.9-1.9-1.9c0-4.7-3.8-8.4-8.4-8.4c-1.1,0-1.9-0.9-1.9-1.9c0-1.1,0.9-1.9,1.9-1.9
		c4.7,0,8.4-3.8,8.4-8.4c0-1.1,0.9-1.9,1.9-1.9c1.1,0,1.9,0.9,1.9,1.9c0,4.7,3.8,8.4,8.4,8.4c1.1,0,1.9,0.9,1.9,1.9
		c0,1.1-0.9,1.9-1.9,1.9c-4.7,0-8.4,3.8-8.4,8.4C41.3,56.8,40.4,57.7,39.3,57.7 M35.6,45.4c1.5,1,2.8,2.2,3.7,3.7
		c1-1.5,2.2-2.8,3.7-3.7c-1.5-1-2.8-2.2-3.7-3.7C38.3,43.1,37.1,44.4,35.6,45.4"/>
	<path class="st2" d="M75,124.3c2.8-2.8,5.5-5.3,7.9-8c0.6-0.7,0.4-2.2,0.6-3.6c-1,0-1.7,0-2.4,0c-3.3-0.1-6-2.7-6-6.1
		c-0.1-4.2-0.1-8.5,0-12.7c0-3.3,2.2-5.4,6.2-6.2v-3.5c0-6.1,0-12.3,0-18.4c0-4.6,2.4-7,7-7c0.5,0,0.9,0,1.4,0
		c0.3-0.7,0.4-1.4,0.7-2c1.9-3.9,5-6.2,9.4-6.2c13.7-0.1,27.5,0,41.2,0c1.7,0,2.5,0.8,2.5,2.4c0,1.3,0,2.7,0,4
		c0.1,3.3-0.4,6.5-2.2,9.5c2.1,1.7,2.3,4.1,2.2,6.6c-0.1,4.4,0,8.8,0,13.2v1.4c3.2,0.4,5.3,1.9,6.1,5c0.2,0.6,0.2,1.3,0.2,1.9
		c0,3.7,0,7.3,0,11c0,4.5-2.5,7-7,7c-0.4,0-0.8,0-1.2,0c-0.1,1.8-0.2,3.6-0.3,5.4c-1.5,14.2-13.8,25.4-28.1,25.6
		c-1.4,0-2.3,0.4-3.2,1.4c-10.8,10.9-21.7,21.7-32.5,32.5c-1.5,1.5-2.6,1.8-3.7,0.8c-1.1-1-0.8-2.2,0.8-3.7
		c12.1-12.1,24.1-24.1,36.2-36.2c0.2-0.2,0.5-0.5,0.7-0.7c1.5-1.5,1.7-2.8,0.6-3.9c-1.1-1.1-2.4-0.9-3.9,0.6
		c-3.4,3.4-6.7,6.7-10.1,10.1c-0.3,0.3-0.6,0.6-1,0.9c-1,0.6-1.9,0.5-2.7-0.3c-0.7-0.8-0.8-1.7-0.1-2.6c0.3-0.4,0.8-0.8,1.2-1.2
		c3.9-3.9,7.9-7.9,11.8-11.8c0.3-0.3,0.6-0.6,0.9-1c0.7-1,0.6-2.2-0.3-3c-0.9-0.8-2-0.8-3-0.1c-0.4,0.3-0.8,0.8-1.2,1.2
		c-4,4-7.9,7.9-11.9,11.9c-0.3,0.3-0.7,0.7-1.1,0.9c-0.9,0.5-1.7,0.3-2.4-0.3c-0.7-0.7-0.9-1.6-0.4-2.5c0.2-0.3,0.5-0.6,0.7-0.9
		c4.7-4.7,9.5-9.5,14.2-14.2c0.2-0.2,0.3-0.3,0.5-0.5c1.3-1.4,1.5-2.7,0.4-3.7c-1-1.1-2.3-0.9-3.7,0.4c-4.8,4.8-9.7,9.6-14.5,14.5
		c-0.3,0.3-0.7,0.7-1.1,0.9c-0.9,0.5-1.8,0.4-2.5-0.4s-0.8-1.6-0.3-2.5c0.2-0.4,0.6-0.7,0.9-1c5.4-5.4,10.9-10.9,16.3-16.3
		c1.6-1.6,1.8-2.9,0.7-4c-1.1-1.1-2.4-0.9-4,0.7c-6.7,6.7-13.5,13.5-20.2,20.2c-0.2,0.2-0.4,0.4-0.5,0.5c-0.7,0.7-1.5,1.1-2.4,0.7
		c-1-0.4-1.4-1.2-1.4-2.3c0-4.2,0-8.4,0-12.6c0-0.7-0.1-1.5-0.5-2.1c-0.6-1.2-2-1.8-3.3-1.5c-1.4,0.3-2.4,1.5-2.4,3.1
		c0,3.1,0,6.1,0,9.2c0,4.7,0,9.4,0,14.1c0,0.7-0.3,1.6-0.8,2.2c-3.8,3.9-7.7,7.7-11.5,11.6c-0.2,0.2-0.4,0.4-0.6,0.5
		c-1,0.9-2.2,0.9-3,0.1c-0.8-0.8-0.8-2,0.1-3c2.4-2.5,4.9-4.9,7.4-7.4c1.4-1.4,3.4-2.7,4.1-4.4c0.7-1.7,0.2-4,0.2-6
		c0-5.5,0-11,0-16.5c0-4.4,3.1-7.7,7.2-7.7c4.1,0,7.3,3.2,7.3,7.6C75,118.8,75,121.3,75,124.3 M131.5,73.3h-3.9
		c-11.1,0-22.2,0-33.3,0c-1,0-1.4,0.2-1.7,1.2c-1.6,5-3.3,9.9-4.9,14.9c-0.2,0.6-0.3,1.2-0.3,1.8c0,6.5,0,13,0,19.4v1.2
		c0.5-0.5,0.8-0.7,1.1-1c1.6-1.6,3.1-3.2,4.8-4.7c2.1-2,5.2-2.3,7.7-0.9c2.4,1.3,3.6,4,3.1,6.8c-0.2,0.8,0.2,1,0.8,1.3
		c2.7,1.4,4,4.1,3.4,7c-0.1,0.3-0.1,0.6-0.1,0.8c3.7,1.9,4.5,3.5,4.2,8.3c4.1,1.9,5.5,5.8,3.2,10.1c0.4,0,0.7-0.1,1.1-0.1
		c12.1-2.3,20.5-12.4,20.5-24.7c0-6.4-0.1-12.9,0-19.3c0.1-3.4-0.4-6.6-1.6-9.7C134.1,81.4,132.9,77.3,131.5,73.3 M93.7,69.2h1.5
		c11,0,21.9-0.1,32.9,0c7.6,0.1,12.5-5.8,11-14.5h-12.4c-8.8,0-17.7,0-26.5,0c-3.4,0-6.2,2.4-6.4,5.7C93.6,63.2,93.7,66.1,93.7,69.2
		 M83.2,92c-0.7,0-1.2,0-1.7,0c-1.6,0-2.4,0.8-2.4,2.4c0,4,0,7.9,0,11.9c0,1.2,0.5,2,1.7,2.2c0.8,0.1,1.6,0,2.4,0V92z M141.4,108.6
		c0.8,0,1.4,0,2,0c1.2-0.1,2-0.8,2-2.1c0-4.1,0-8.3,0-12.4c0-1.2-0.8-2-2-2.1c-0.7,0-1.3,0-2.1,0V108.6z M89.3,63
		c-0.1,0-0.3,0-0.5,0c-2.8-0.1-3.4,0.5-3.4,3.2v11.1v5.2C87.6,76.3,90.8,70.1,89.3,63 M135.4,71.9c1.2,3.6,2.4,7.2,3.6,10.8
		c0.2-3.8,0.2-7.5,0.2-11.3c0-0.5-0.3-1.1-0.5-1.7C137.5,70.4,136.5,71.1,135.4,71.9"/>
	<path class="st2" d="M149.5,179c-8,0-16,0-23.9,0c-1,0-2,0-2.6-1.1c-0.6-1-0.1-1.9,0.4-2.8c8-13.3,16-26.7,24-40
		c1.4-2.3,3.1-2.3,4.5,0.1c8,13.3,16,26.6,24,39.9c0.5,0.9,1,1.7,0.5,2.8c-0.6,1.1-1.6,1.1-2.7,1.1C165.6,179,157.6,179,149.5,179
		 M170.8,174.8c-7.1-11.8-14.1-23.5-21.2-35.3c-7.1,11.9-14.1,23.5-21.2,35.3H170.8z"/>
	<path class="st3" d="M131.5,73.3c1.3,4,2.6,8.1,4.1,12.2c1.2,3.2,1.6,6.4,1.6,9.7c-0.1,6.4,0,12.9,0,19.3
		c0,12.3-8.4,22.4-20.5,24.7c-0.3,0.1-0.7,0.1-1.1,0.1c2.3-4.3,0.9-8.2-3.2-10.1c0.3-4.8-0.5-6.4-4.2-8.3c0-0.3,0-0.5,0.1-0.8
		c0.6-2.9-0.7-5.7-3.4-7c-0.6-0.3-0.9-0.5-0.8-1.3c0.6-2.8-0.7-5.5-3.1-6.8c-2.5-1.4-5.6-1.1-7.7,0.9c-1.6,1.5-3.2,3.2-4.8,4.7
		c-0.3,0.3-0.6,0.6-1.1,1v-1.2c0-6.5,0-13,0-19.4c0-0.6,0.1-1.2,0.3-1.8c1.6-5,3.3-9.9,4.9-14.9c0.3-1,0.8-1.2,1.7-1.2
		c11.1,0,22.2,0,33.3,0H131.5z M112.7,112.7c0-0.3,0-0.5,0-0.6c0.5-3.8,1.1-7.5,1.6-11.2c0.2-1.4-0.5-2.4-1.6-2.6
		c-1.3-0.2-2.2,0.6-2.5,2c-0.1,0.9-0.3,1.9-0.4,2.8c-0.5,3.7-1.1,7.4-1.6,11.1c-0.2,1.5,0.5,2.6,1.9,2.7c1.5,0.1,2.9,0.1,4.4,0
		c1.1-0.1,1.9-1,1.9-2c0-1.1-0.8-1.9-1.9-2.1C113.9,112.7,113.3,112.7,112.7,112.7 M110.2,93.8c-0.1-0.2-0.2-0.9-0.6-1.1
		c-1.9-1-3.8-2.4-5.9-2.7c-3.3-0.4-6.6-0.1-9.9-0.1c-1.3,0-2.2,0.8-2.2,2c0,1.2,0.9,2.1,2.3,2.1c1.5,0,2.9,0.1,4.4,0
		c3.1-0.1,6.2-0.1,8.9,1.8c0.2,0.1,0.4,0.2,0.6,0.2C109,96.3,110.2,95.4,110.2,93.8 M125.8,89.9c-3.3-0.2-6.4-0.1-9.3,1.8
		c-1.9,1.2-2.5,2-1.9,3.3c0.7,1.2,1.8,1.5,3.7,0.4c1.9-1.1,3.8-1.5,5.9-1.4c2.1,0.1,4.3,0,6.5,0c1.4,0,2.3-0.8,2.3-2.1
		c0-1.2-0.9-2.1-2.3-2.1C129.1,89.9,127.4,89.9,125.8,89.9 M99.9,98.2c-1.1,0-2.1,0.9-2.1,2c0,1.1,0.9,2.1,2,2.1
		c1.1,0,2.1-0.9,2.1-2C102,99.2,101,98.2,99.9,98.2 M126.8,100.2c0-1.1-1-2-2.1-2c-1.1,0-2,1-2,2.1c0,1.1,1,2,2.1,2
		C125.9,102.3,126.8,101.3,126.8,100.2"/>
	<path class="st3" d="M93.7,69.2c0-3.1-0.1-6,0-8.8c0.2-3.3,3-5.7,6.4-5.7c8.8,0,17.7,0,26.5,0h12.4c1.5,8.7-3.3,14.6-11,14.5
		c-11-0.1-21.9,0-32.9,0H93.7z"/>
	<path class="st3" d="M83.2,92v16.5c-0.8,0-1.6,0.1-2.4,0c-1.2-0.2-1.7-1-1.7-2.2c0-4,0-7.9,0-11.9c0-1.6,0.8-2.4,2.4-2.4
		C82.1,92,82.6,92,83.2,92"/>
	<path class="st3" d="M141.4,108.6V92c0.7,0,1.4,0,2.1,0c1.2,0.1,2,0.8,2,2.1c0,4.1,0,8.3,0,12.4c0,1.2-0.8,2-2,2.1
		C142.8,108.6,142.1,108.6,141.4,108.6"/>
	<path class="st3" d="M89.3,63c1.5,7.2-1.6,13.3-3.9,19.6v-5.2V66.2c0-2.8,0.6-3.3,3.4-3.2C88.9,63,89.2,63,89.3,63"/>
	<path class="st3" d="M135.4,71.9c1.1-0.7,2.1-1.4,3.3-2.2c0.2,0.6,0.5,1.2,0.5,1.7c0,3.7,0,7.5-0.2,11.3
		C137.8,79,136.6,75.4,135.4,71.9"/>
	<path class="st3" d="M170.8,174.8h-42.3c7.1-11.8,14-23.4,21.2-35.3C156.7,151.3,163.7,163,170.8,174.8 M147.5,156.2
		c0,1.9,0,3.9,0,5.8c0,1.5,0.8,2.5,2.1,2.5c1.3,0,2.1-0.9,2.1-2.4c0-3.9,0-7.8,0-11.7c0-1.5-0.8-2.5-2.1-2.5c-1.3,0-2.1,0.9-2.1,2.4
		C147.5,152.3,147.5,154.3,147.5,156.2 M149.6,166.6c-1.1,0-2,1-2,2.1c0,1.1,1,2,2.1,2c1.1,0,2-1,2-2.1
		C151.7,167.5,150.7,166.6,149.6,166.6"/>
	<path class="st2" d="M112.7,112.7c0.6,0,1.2,0,1.8,0c1.1,0.1,1.9,1,1.9,2.1c0,1.1-0.8,2-1.9,2c-1.5,0.1-2.9,0.1-4.4,0
		c-1.4-0.1-2.1-1.2-1.9-2.7c0.5-3.7,1.1-7.4,1.6-11.1c0.1-0.9,0.3-1.9,0.4-2.8c0.2-1.5,1.2-2.2,2.5-2c1.2,0.2,1.8,1.2,1.6,2.6
		c-0.5,3.8-1.1,7.5-1.6,11.2C112.7,112.2,112.7,112.4,112.7,112.7"/>
	<path class="st2" d="M110.2,93.8c0,1.6-1.2,2.6-2.5,2.3c-0.2,0-0.4-0.1-0.6-0.2c-2.7-1.9-5.8-2-8.9-1.8c-1.5,0.1-2.9,0-4.4,0
		c-1.4,0-2.3-0.9-2.3-2.1c0-1.2,0.9-2,2.2-2c3.3,0,6.7-0.3,9.9,0.1c2.1,0.3,4,1.7,5.9,2.7C110,92.9,110.1,93.6,110.2,93.8"/>
	<path class="st2" d="M125.8,89.9c1.6,0,3.3,0,4.9,0c1.4,0,2.3,0.9,2.3,2.1c0,1.2-0.9,2-2.3,2.1c-2.2,0-4.3,0.1-6.5,0
		c-2.1-0.1-4,0.3-5.9,1.4c-1.9,1.1-3,0.9-3.7-0.4c-0.7-1.3,0-2.1,1.9-3.3C119.4,89.8,122.6,89.7,125.8,89.9"/>
	<path class="st2" d="M99.9,98.2c1.1,0,2,1,2,2.1c0,1.1-1,2-2.1,2c-1.1,0-2-1-2-2.1C97.8,99.1,98.8,98.2,99.9,98.2"/>
	<path class="st2" d="M126.8,100.2c0,1.1-0.9,2.1-2,2.1c-1.1,0-2.1-0.9-2.1-2c0-1.1,0.9-2.1,2-2.1
		C125.8,98.2,126.8,99.1,126.8,100.2"/>
	<path class="st2" d="M147.6,156.2c0-1.9,0-3.9,0-5.8c0-1.5,0.8-2.4,2.1-2.4c1.3,0,2,0.9,2.1,2.5c0,3.9,0,7.8,0,11.7
		c0,1.5-0.8,2.4-2.1,2.4c-1.3,0-2-0.9-2.1-2.5C147.5,160.1,147.6,158.2,147.6,156.2"/>
	<path class="st2" d="M149.6,166.6c1.1,0,2.1,0.9,2.1,2c0,1.1-0.9,2.1-2,2.1c-1.1,0-2.1-0.9-2.1-2
		C147.5,167.6,148.4,166.6,149.6,166.6"/>
</g>
</svg>
