<?xml version="1.0" encoding="utf-8"?>
<!-- Generator: Adobe Illustrator 24.3.0, SVG Export Plug-In . SVG Version: 6.00 Build 0)  -->
<svg version="1.1" id="Layer_1" xmlns="http://www.w3.org/2000/svg" xmlns:xlink="http://www.w3.org/1999/xlink" x="0px" y="0px"
	 width="35.7px" height="35.7px" viewBox="0 0 35.7 35.7" style="enable-background:new 0 0 35.7 35.7;" xml:space="preserve">
<style type="text/css">
	.st0{fill:#E17863;}
</style>
<path class="st0" d="M18.8,34.8h-2c-0.6-0.1-1.1-0.1-1.7-0.2C11.6,34,8.6,32.5,6,29.9c-3.8-3.8-5.5-8.4-5-13.8
	c0.3-3.3,1.5-6.3,3.6-8.9C8.5,2.6,13.5,0.5,19.5,1c2.8,0.2,5.4,1.2,7.7,2.8c4,2.7,6.4,6.4,7.3,11.2c0.1,0.6,0.2,1.3,0.3,1.9v2
	c0,0.2-0.1,0.5-0.1,0.7c-0.3,2.8-1.2,5.4-2.8,7.7c-2.7,4-6.4,6.4-11.2,7.3C20.1,34.7,19.5,34.7,18.8,34.8 M8.5,18.1
	c2.4,2.4,4.9,4.9,7.4,7.4c4.1-3.7,8.2-7.4,12.3-11.2c-0.9-1-1.8-2-2.7-2.9c-3.2,2.9-6.3,5.8-9.5,8.7c-1.6-1.6-3.2-3.2-4.7-4.7
	C10.3,16.3,9.4,17.2,8.5,18.1"/>
</svg>
