<?xml version="1.0" encoding="utf-8"?>
<!-- Generator: Adobe Illustrator 24.3.0, SVG Export Plug-In . SVG Version: 6.00 Build 0)  -->
<svg version="1.1" id="Layer_1" xmlns="http://www.w3.org/2000/svg" xmlns:xlink="http://www.w3.org/1999/xlink" x="0px" y="0px"
	 width="40px" height="44.2px" viewBox="0 0 40 44.2" style="enable-background:new 0 0 40 44.2;" xml:space="preserve">
<style type="text/css">
	.st0{fill:#F8E3DF;}
	.st1{fill:none;stroke:#727373;stroke-linecap:round;stroke-linejoin:round;stroke-miterlimit:10;}
</style>
<path class="st0" d="M20,2.1c11,0,20,9,20,20c0,11-9,20-20,20c-11,0-20-9-20-20C0,11,9,2.1,20,2.1"/>
<path class="st1" d="M14.6,29.6v-9.1h2.6c0.4,0,0.8,0.4,0.8,0.8v7.5c0,0.4-0.4,0.8-0.8,0.8H14.6z"/>
<path class="st1" d="M10.6,29.7v-9.2c0-0.3,0.3-0.6,0.6-0.6H14c0.3,0,0.6,0.3,0.6,0.6v9.2c0,0.3-0.3,0.6-0.6,0.6h-2.8
	C10.9,30.3,10.6,30,10.6,29.7z"/>
<path class="st1" d="M29,25.4c0-0.2-0.1-0.4-0.1-0.6c0,0,0-0.1,0-0.1c0-0.1,0-0.2,0-0.3c0-0.2,0.1-0.3,0.2-0.4c0,0,0,0,0,0
	c0.4-0.4,0.5-0.8,0.3-1.3c0-0.1-0.1-0.3-0.2-0.4c0,0,0,0,0,0c0,0-0.1-0.1-0.1-0.1c-0.1-0.1-0.1-0.2-0.2-0.3c-0.1-0.1,0-0.3,0-0.4
	c0,0,0-0.1,0.1-0.1c0.1-0.1,0.1-0.2,0.1-0.3c0-0.1,0-0.1,0-0.2c0-0.2,0-0.3-0.1-0.5c-0.1-0.2-0.3-0.4-0.6-0.5
	c-0.2-0.1-0.5-0.2-0.8-0.2c-0.2,0-0.4,0-0.5-0.1c-0.3,0-0.7,0-1,0c-0.5,0-1,0.1-1.5,0.2c-0.2,0-0.5,0.1-0.7,0.1c-0.2,0-0.4,0-0.5,0
	c0,0,0,0,0,0c0,0-0.1,0-0.1,0c-0.2-0.1-0.3-0.4-0.4-0.6c0-0.3,0-0.6,0-0.8c0-0.2,0-0.3,0.1-0.5c0-0.1,0.1-0.2,0.1-0.4h0
	c0,0,0.5-1.2,0.5-2.6c0-0.6-0.5-1.1-1.1-1.1c-0.6,0-1.1,0.5-1.1,1.1c0,0.6,0,1.4-0.4,2.2c0,0,0,0,0,0h0c-0.2,0.4-0.4,0.9-0.7,1.3
	c0,0.1-0.1,0.2-0.1,0.2c-0.2,0.3-0.4,0.6-0.7,0.9c-0.2,0.3-0.5,0.6-0.7,0.8c-0.2,0.2-0.4,0.5-0.6,0.8C18,21.6,18,21.8,18,22
	c0,0,0,0.1,0,0.1c0,0.5,0,1.1,0,1.6l0,3v2.3c0,0,0,0,0.1,0c1,0.1,2,0.2,3,0.3c0.1,0,0.2,0,0.3,0c1,0.1,1.9,0.1,2.9,0.1
	c0.4,0,0.9,0,1.3,0c0.4,0,0.8-0.1,1.2-0.2c0.2,0,0.3-0.1,0.5-0.2c0.2-0.1,0.4-0.2,0.5-0.4c0.3-0.3,0.4-0.7,0.3-1.2c0,0,0-0.1,0-0.1
	c0-0.1,0-0.2,0-0.3c0-0.1,0.1-0.3,0.2-0.4c0,0,0,0,0.1,0c0.1-0.1,0.2-0.2,0.3-0.3c0,0,0,0,0,0c0,0,0-0.1,0.1-0.1c0,0,0,0,0,0
	c0.1-0.2,0.2-0.4,0.2-0.6c0,0,0-0.1,0-0.1C29,25.5,29,25.4,29,25.4z"/>
</svg>
